<svg width="24" height="18" viewBox="0 0 24 18" fill="none" xmlns="http://www.w3.org/2000/svg">
<path d="M14.2517 15.1749C13.711 15.7156 13.711 16.5923 14.2517 17.133C14.7924 17.6738 15.6691 17.6738 16.2098 17.133L23.5945 9.74842C23.8648 9.47805 24 9.1237 24 8.76934C24 8.5816 23.9626 8.40259 23.8949 8.23934C23.8274 8.07603 23.7272 7.92303 23.5945 7.79027L16.2098 0.405658C15.6691 -0.13507 14.7924 -0.13507 14.2517 0.405658C13.711 0.946384 13.711 1.82307 14.2517 2.3638L19.2726 7.38473L1.38462 7.38473C0.619914 7.38473 8.33483e-07 8.00464 7.6663e-07 8.76934C6.99778e-07 9.53404 0.619914 10.154 1.38462 10.154L19.2726 10.154L14.2517 15.1749Z" fill="white"/>
</svg>
