<svg width="86" height="86" viewBox="0 0 86 86" fill="none" xmlns="http://www.w3.org/2000/svg">
<path d="M86 43C86 66.7486 66.7486 86 43 86C19.2514 86 0 66.7486 0 43C0 19.2514 19.2514 0 43 0C66.7486 0 86 19.2514 86 43Z" fill="#017296"/>
<path d="M45.6592 26.707V24.8594C45.6592 24.6737 45.8094 24.5234 45.9951 24.5234H66.1796C66.3653 24.5234 66.5155 24.6737 66.5155 24.8594V26.707C66.5155 26.8927 66.3653 27.043 66.1796 27.043H45.9951C45.8101 27.043 45.6592 26.8927 45.6592 26.707ZM71.2186 61.4766H45.9951C45.8094 61.4766 45.6592 61.6268 45.6592 61.8125V63.6602C45.6592 63.8458 45.8094 63.9961 45.9951 63.9961H71.2186C71.4043 63.9961 71.5546 63.8458 71.5546 63.6602V61.8125C71.5546 61.6268 71.4043 61.4766 71.2186 61.4766ZM45.9951 58.957H66.1796C66.3653 58.957 66.5155 58.8068 66.5155 58.6211V56.7734C66.5155 56.5878 66.3653 56.4375 66.1796 56.4375H45.9951C45.8094 56.4375 45.6592 56.5878 45.6592 56.7734V58.6211C45.6592 58.8068 45.8101 58.957 45.9951 58.957ZM71.2186 51.3984H45.9951C45.8094 51.3984 45.6592 51.5487 45.6592 51.7344V53.582C45.6592 53.7677 45.8094 53.918 45.9951 53.918H71.2186C71.4043 53.918 71.5546 53.7677 71.5546 53.582V51.7344C71.5546 51.5487 71.4043 51.3984 71.2186 51.3984ZM71.2186 29.5625H45.9951C45.8094 29.5625 45.6592 29.7128 45.6592 29.8984V31.7461C45.6592 31.9318 45.8094 32.082 45.9951 32.082H71.2186C71.4043 32.082 71.5546 31.9318 71.5546 31.7461V29.8984C71.5546 29.7128 71.4043 29.5625 71.2186 29.5625ZM71.2186 19.4844H45.9951C45.8094 19.4844 45.6592 19.6346 45.6592 19.8203V21.668C45.6592 21.8537 45.8094 22.0039 45.9951 22.0039H71.2186C71.4043 22.0039 71.5546 21.8537 71.5546 21.668V19.8203C71.5546 19.6346 71.4043 19.4844 71.2186 19.4844Z" fill="#6CAAC9"/>
<path d="M25.3633 46.7793C18.6485 46.7793 13.1855 52.2422 13.1855 58.957C13.1855 65.6718 18.6485 71.1348 25.3633 71.1348C32.0781 71.1348 37.541 65.6718 37.541 58.957C37.541 52.2422 32.0781 46.7793 25.3633 46.7793ZM25.3633 68.6152C20.0375 68.6152 15.7051 64.2828 15.7051 58.957C15.7051 53.6312 20.0375 49.2988 25.3633 49.2988C30.6891 49.2988 35.0215 53.6312 35.0215 58.957C35.0215 64.2828 30.6891 68.6152 25.3633 68.6152ZM25.3633 39.2207C32.0781 39.2207 37.541 33.7578 37.541 27.043C37.541 20.3282 32.0781 14.8652 25.3633 14.8652C18.6485 14.8652 13.1855 20.3282 13.1855 27.043C13.1855 33.7578 18.6485 39.2207 25.3633 39.2207ZM25.3633 17.3848C30.6891 17.3848 35.0215 21.7172 35.0215 27.043C35.0215 32.3688 30.6891 36.7012 25.3633 36.7012C20.0375 36.7012 15.7051 32.3688 15.7051 27.043C15.7051 21.7172 20.0375 17.3848 25.3633 17.3848Z" fill="#88B9D3"/>
<path d="M81.9803 13.5208L77.2293 18.2719C76.5739 18.928 75.5103 18.928 74.8541 18.2719L67.7279 11.1456C67.0718 10.4895 67.0718 9.42593 67.7279 8.77046L72.479 4.01944C73.1344 3.36331 74.198 3.36331 74.8541 4.01944L81.9803 11.1456C82.6365 11.8018 82.6365 12.8654 81.9803 13.5208Z" fill="#024C67"/>
<path d="M43.2007 15.8029L26.2096 32.7933C25.9203 33.0827 25.4512 33.0833 25.1618 32.7933L17.7508 25.3843C17.6065 25.24 17.6065 25.0051 17.7508 24.8607L19.8465 22.7644C19.9915 22.6201 20.2258 22.6201 20.3708 22.7644L25.4229 27.8166C25.5673 27.9616 25.8022 27.9616 25.9465 27.8166L40.5808 13.183C40.7252 13.0386 40.9601 13.0386 41.1044 13.183L43.2001 15.2786C43.3451 15.4236 43.3451 15.6585 43.2007 15.8029ZM23.7912 57.4585C23.1606 58.0884 22.807 58.9426 22.807 59.8337V62.8571C22.807 63.0428 22.9572 63.193 23.1429 63.193H26.1663C27.0574 63.193 27.9116 62.8394 28.5415 62.2088L32.3083 58.442L27.558 53.6917L23.7912 57.4585Z" fill="#FDED32"/>
<path d="M80.7929 14.7084L39.6773 55.824C39.2082 56.2932 38.6111 56.6127 37.9609 56.7426L33.1554 57.7038C32.33 57.8692 31.477 57.6107 30.8819 57.0155L28.9837 55.1174C28.3893 54.5229 28.1308 53.6693 28.2961 52.8445L29.2567 48.0391C29.3866 47.3888 29.7068 46.7911 30.1753 46.3226L71.2909 5.20703L80.7929 14.7084Z" fill="#FC9302"/>
<path d="M80.7928 14.7084L39.6772 55.824C39.2081 56.2932 38.611 56.6127 37.9608 56.7426L33.1553 57.7038C32.3299 57.8692 31.4769 57.6107 30.8818 57.0155L32.1075 50.8899C32.2374 50.2391 32.5569 49.642 33.0261 49.1729L74.1417 8.05725L80.7928 14.7084Z" fill="#FDBF43"/>
<path d="M39.6773 55.824L37.0594 58.442C35.7478 59.7542 33.6206 59.7542 32.3083 58.442L29.9332 60.8178L25.1821 56.0668L27.558 53.6916C26.2457 52.3793 26.2457 50.2522 27.558 48.9406L30.1759 46.3226L39.6773 55.824Z" fill="#024C67"/>
</svg>
