<svg width="26" height="19" viewBox="0 0 26 19" fill="none" xmlns="http://www.w3.org/2000/svg">
<path fill-rule="evenodd" clip-rule="evenodd" d="M4.41138 7.57119C5.94014 7.57119 7.44645 7.58434 8.95257 7.56311C9.40142 7.55682 9.7309 7.27703 9.89244 6.7893C10.0993 6.16519 10.1303 5.52042 10.0196 4.87593C9.89113 4.12738 9.45289 3.64904 8.6802 3.66791C7.33966 3.7006 5.99809 3.67693 4.65698 3.67693H4.41138V7.57119ZM4.41138 14.9661H4.80322C6.1029 14.966 7.40268 14.9706 8.70236 14.9646C9.75288 14.9596 10.396 14.4242 10.5585 13.3583C10.6246 12.9254 10.6201 12.4612 10.5611 12.0259C10.4032 10.8614 9.76161 10.2828 8.70584 10.2827C7.35779 10.2827 6.00964 10.2827 4.66149 10.2827H4.41138V14.9661ZM11.2048 8.53407C11.5173 8.62292 11.8457 8.67928 12.1484 8.81002C12.8313 9.10483 13.2676 9.69053 13.5512 10.4257C13.9357 11.4219 14.0038 12.4688 13.9253 13.5343C13.8668 14.3286 13.6821 15.0843 13.2954 15.762C12.7029 16.8004 11.8388 17.4473 10.794 17.7636C10.2259 17.9356 9.62711 18.0591 9.04076 18.0661C6.35198 18.0978 3.66273 18.0808 0.973667 18.0808C0.925955 18.0808 0.878244 18.0747 0.814941 18.0705V0.587387C0.854576 0.581376 0.900034 0.568696 0.945492 0.568696C3.71054 0.569635 6.47577 0.55752 9.24072 0.581094C10.2419 0.589641 11.1768 0.901836 11.9817 1.60549C12.7941 2.31563 13.2094 3.27175 13.3529 4.39008C13.4613 5.23509 13.434 6.0692 13.1185 6.86425C12.7715 7.73819 12.1473 8.24123 11.3399 8.49153C11.2898 8.50702 11.2399 8.52299 11.2048 8.53407Z" fill="#b2b2b2"/>
<path fill-rule="evenodd" clip-rule="evenodd" d="M17.4648 10.084H22.8145C22.7677 9.26527 22.5533 8.54001 21.942 8.00823C21.382 7.52106 20.7127 7.42498 20.0085 7.48114C18.5719 7.59591 17.6751 8.76101 17.4648 10.084ZM17.4981 12.3853C17.4416 13.8232 18.1707 15.0063 19.5778 15.2841C20.251 15.4169 20.9179 15.391 21.5696 15.2004C22.3613 14.9688 22.8979 14.463 22.9881 13.5409H25.8544C25.8486 14.6135 25.6011 15.5799 24.9047 16.3818C24.1604 17.2391 23.1966 17.6744 22.1375 17.8938C20.6864 18.1944 19.2388 18.163 17.8172 17.7105C16.0493 17.1477 14.8948 15.9079 14.3322 14.0879C13.6405 11.8509 13.9124 9.70295 15.0583 7.69688C15.9022 6.2194 17.2001 5.38904 18.8094 5.09159C19.9739 4.87633 21.1366 4.8953 22.2793 5.24121C23.7668 5.69138 24.797 6.68516 25.4009 8.1694C25.9082 9.41639 26.0468 10.725 25.9868 12.0651C25.9725 12.3853 25.9651 12.3852 25.665 12.3852C23.0398 12.3853 20.4146 12.3853 17.7895 12.3853H17.4981Z" fill="#b2b2b2"/>
<path fill-rule="evenodd" clip-rule="evenodd" d="M22.7109 3.8431H22.4726C20.4496 3.8431 18.4264 3.84 16.4034 3.84808C16.203 3.84893 16.1412 3.79182 16.1463 3.56528C16.1601 2.94456 16.151 2.32327 16.151 1.67756C16.242 1.67192 16.3164 1.66337 16.3907 1.66337C18.4207 1.66272 20.4509 1.66553 22.4808 1.65821C22.666 1.65755 22.7195 1.71165 22.7153 1.91865C22.7031 2.54727 22.7109 3.17635 22.7109 3.8431Z" fill="#b2b2b2"/>
</svg>
