<svg xmlns="http://www.w3.org/2000/svg" viewBox="0 0 109 109"><defs><style>.cls-1{fill:#e20613;}.cls-2{fill:none;}.cls-2,.cls-3{stroke:#000;stroke-miterlimit:10;stroke-width:1.95px;}.cls-3{fill:#fff;}</style></defs><g id="Слой_2" data-name="Слой 2"><g id="Слой_1-2" data-name="Слой 1"><polygon class="cls-1" points="93.14 94 83.54 94.66 79.89 103.57 70.52 101.37 64.4 108.81 56.1 103.94 48.06 109.25 41.56 102.15 32.32 104.85 28.2 96.15 18.57 96.01 17.19 86.48 8.04 83.5 9.53 74 1.66 68.45 5.89 59.81 0 52.19 6.59 45.18 3.21 36.16 11.57 31.4 11 21.79 20.4 19.71 22.68 10.36 32.27 11.13 37.21 2.87 46.15 6.44 53.3 0 60.79 6.05 69.53 2 74.9 9.99 84.44 8.7 87.22 17.91 96.72 19.49 96.66 29.11 105.27 33.42 102.37 42.6 109.33 49.25 103.86 57.17 108.55 65.58 100.98 71.54 102.99 80.95 94 84.41 93.14 94"/><polyline class="cls-2" points="55.75 63.04 58.99 59.48 69.22 68.14 79.45 59.48 81.7 62.44"/><path class="cls-3" d="M64.33,55s-7.81,2.29-15-.73-11-10.19-11-10.19,7.81-2.29,15,.73S64.33,55,64.33,55Z"/><path class="cls-3" d="M71.15,55s7.81,2.29,15-.73,11-10.19,11-10.19-7.81-2.29-15,.73S71.15,55,71.15,55Z"/><polygon points="53.31 44.79 53.31 55.32 59.05 55.77 64.33 54.98 58.82 48.29 53.31 44.79"/><polygon points="84.15 44.09 84.15 54.95 91.55 50.84 97.16 44.06 90.66 43.23 84.15 44.09"/></g></g></svg>