<?xml version="1.0" encoding="utf-8"?>
<!-- Generator: Adobe Illustrator 24.1.0, SVG Export Plug-In . SVG Version: 6.00 Build 0)  -->
<svg version="1.1" id="Слой_1" xmlns="http://www.w3.org/2000/svg" xmlns:xlink="http://www.w3.org/1999/xlink" x="0px" y="0px"
	 viewBox="0 0 132.3 112.8" style="enable-background:new 0 0 132.3 112.8;" xml:space="preserve">
<style type="text/css">
	.st0{fill:#E20613;}
	.st1{fill:#FFFFFF;}
</style>
<g id="Слой_2_1_">
	<g id="Слой_1-2">
		<polygon class="st0" points="122.6,48.4 101.8,56.4 122.6,64.4 100.3,66.3 118.1,79.8 96.2,75.3 109.4,93.3 89.7,82.8 97.3,103.9 
			81.3,88.2 82.7,110.5 71.8,91 66.8,112.8 61.8,91 50.9,110.5 52.2,88.2 36.3,103.9 43.9,82.8 24.2,93.3 37.4,75.3 15.5,79.8 
			33.2,66.3 10.9,64.4 31.8,56.4 10.9,48.4 33.2,46.5 15.5,33 37.4,37.5 24.2,19.5 43.9,30 36.3,8.9 52.2,24.6 50.9,2.3 61.8,21.8 
			66.8,0 71.8,21.8 82.7,2.3 81.3,24.6 97.3,8.9 89.7,30 109.4,19.5 96.2,37.5 118.1,33 100.3,46.5 		"/>
		<g>
			<path class="st1" d="M65.5,61.7C55.4,65.2,44.8,67,34.2,67c-10.7,0-21.3-1.8-31.3-5.3c10.1-3.5,20.7-5.3,31.3-5.3
				C44.9,56.5,55.5,58.3,65.5,61.7z"/>
			<path d="M34.2,68.1C23.4,68,12.7,66.2,2.5,62.7l-2.8-1l2.8-1c10.2-3.5,20.9-5.3,31.7-5.4c10.8,0.1,21.5,1.9,31.7,5.4l2.8,1
				l-2.8,1C55.7,66.2,45,68.1,34.2,68.1z M6.1,61.8c9.1,2.8,18.5,4.3,28.1,4.3c9.5-0.1,19-1.5,28.1-4.3c-9.1-2.8-18.5-4.3-28.1-4.3
				C24.7,57.5,15.2,58.9,6.1,61.8z"/>
		</g>
		<g>
			<path class="st1" d="M129.5,61.7c-10.1,3.5-20.7,5.3-31.3,5.3c-10.7-0.1-21.3-1.9-31.3-5.3c10.1-3.5,20.7-5.3,31.3-5.3
				C108.8,56.5,119.4,58.3,129.5,61.7z"/>
			<path d="M98.1,68.1c-10.8-0.1-21.5-1.9-31.7-5.4l-2.8-1l2.8-1c10.2-3.5,20.9-5.3,31.7-5.4c10.8,0.1,21.5,1.9,31.7,5.4l2.8,1
				l-2.8,1C119.6,66.2,108.9,68.1,98.1,68.1z M70.1,61.8c9.1,2.8,18.5,4.3,28.1,4.3c9.5-0.1,19-1.5,28.1-4.3
				c-9.1-2.8-18.5-4.3-28.1-4.3S79.2,58.9,70.1,61.8z"/>
		</g>
		<g>
			<g>
				<defs>
					<path id="SVGID_1_" d="M65.5,61.7C55.4,65.2,44.8,67,34.2,67c-10.7,0-21.3-1.8-31.3-5.3c10.1-3.5,20.7-5.3,31.3-5.3
						C44.9,56.5,55.5,58.3,65.5,61.7z"/>
				</defs>
				<clipPath id="SVGID_2_">
					<use xlink:href="#SVGID_1_"  style="overflow:visible;"/>
				</clipPath>
			</g>
		</g>
		<g>
			<g>
				<defs>
					<path id="SVGID_3_" d="M129.5,61.7c-10.1,3.5-20.7,5.3-31.3,5.3c-10.7-0.1-21.3-1.9-31.3-5.3c10.1-3.5,20.7-5.3,31.3-5.3
						C108.8,56.5,119.4,58.3,129.5,61.7z"/>
				</defs>
				<clipPath id="SVGID_4_">
					<use xlink:href="#SVGID_3_"  style="overflow:visible;"/>
				</clipPath>
			</g>
		</g>
		<g>
			<polygon class="st1" points="67.2,48.1 58.2,71.3 67.2,71.3 			"/>
			<path d="M68.2,72.4H56.7l11.5-29.7V72.4z M59.6,70.3h6.5V53.6L59.6,70.3z"/>
		</g>
		<rect x="58.2" y="78" width="15.1" height="2"/>
		<rect x="93.6" y="56.5" width="9.2" height="10.6"/>
		<rect x="29.6" y="56.5" width="9.2" height="10.6"/>
	</g>
</g>
</svg>
