<svg width="86" height="86" viewBox="0 0 86 86" fill="none" xmlns="http://www.w3.org/2000/svg">
<g clip-path="url(#clip0)">
<path d="M73.9062 68.7693V71.7921C73.9062 72.5073 73.6215 73.1943 73.111 73.6942C71.247 75.5235 69.2176 77.1835 67.0464 78.6506C66.6324 78.9308 66.0924 78.9459 65.6686 78.6821C59.0869 74.5905 51.3197 72.2265 43 72.2265C34.7564 72.2265 27.0554 74.5479 20.5125 78.5706C19.9765 78.8999 19.2961 78.8855 18.7764 78.5299C16.6545 77.0812 14.6704 75.4461 12.845 73.6503C12.1541 72.9705 11.7578 72.0467 11.7578 71.0769V68.4045C11.7578 64.9494 8.9568 62.1483 5.50163 62.1483C4.87634 62.1483 4.30748 61.7875 4.04175 61.2219C1.44939 55.6894 0 49.5139 0 42.9999C0 19.2684 19.2252 0.0268071 42.9508 -9.41133e-05C66.6921 -0.0269953 86.0571 19.3636 86 43.1055C85.9843 49.592 84.5316 55.7399 81.9445 61.2495C81.6866 61.7986 81.1335 62.1483 80.5272 62.1483C76.8706 62.1483 73.9062 65.1127 73.9062 68.7693Z" fill="#FDED32"/>
<path d="M49.7188 45.3516C49.7188 49.062 46.7104 52.0703 43 52.0703C39.2896 52.0703 36.2812 49.062 36.2812 45.3516C36.2812 41.6412 39.2896 38.6328 43 38.6328C46.7104 38.6328 49.7188 41.6412 49.7188 45.3516Z" fill="#0995A3"/>
<path d="M58.7891 3.35938C58.7891 5.2149 57.2852 6.71875 55.4297 6.71875C54.3228 6.71875 53.3439 6.18073 52.7317 5.35532C47.545 6.57834 43.6719 11.2421 43.6719 16.7969H40.3125C40.3125 9.51189 45.4926 3.41383 52.3629 1.99266C52.8865 0.819504 54.0617 0 55.4297 0C57.2852 0 58.7891 1.50385 58.7891 3.35938Z" fill="#013F69"/>
<path d="M55.9336 0.839844C56.8614 0.839844 57.6133 1.59177 57.6133 2.51953C57.6133 3.4473 56.8614 4.19922 55.9336 4.19922C55.0058 4.19922 54.2539 3.4473 54.2539 2.51953C54.2539 1.59177 55.0058 0.839844 55.9336 0.839844Z" fill="#015081"/>
<path d="M58.789 46.2472H26.875C17.5986 46.2472 10.0781 38.7273 10.0781 29.4503V27.7706C10.0781 18.4943 17.5986 10.9738 26.875 10.9738H58.789C68.0654 10.9738 75.5859 18.4943 75.5859 27.7706V29.4503C75.5859 38.7273 68.0654 46.2472 58.789 46.2472ZM81.9668 61.199C79.7707 65.893 76.7525 70.1237 73.0966 73.7075L67.404 68.0155C67.3443 67.9558 67.2872 67.8942 67.2301 67.8331V75.586C67.2301 76.6594 67.1284 77.7085 66.9362 78.7255C60.0941 83.3191 51.8603 86 43 86C33.994 86 25.6362 83.2298 18.7285 78.4972C18.5632 77.5511 18.4765 76.5787 18.4765 75.586V68.135L12.9034 73.7075C9.24745 70.1237 6.22926 65.893 4.0332 61.199L7.90633 57.3259C9.42001 55.8129 11.4757 55.1738 13.448 55.4067C13.6389 51.8669 16.5692 49.0554 20.1562 49.0554C22.8785 49.0554 25.2202 50.6747 26.2759 53.002C28.8775 51.3486 31.9633 50.3906 35.2734 50.3906H50.4339C54.3143 50.3906 57.8869 51.7075 60.7305 53.9173C61.5369 51.1098 64.1214 49.0554 67.1875 49.0554C70.7667 49.0554 73.691 51.8538 73.8938 55.3825C75.4252 55.5078 76.9218 56.1541 78.0936 57.3259L81.9668 61.199Z" fill="#0CABB9"/>
<path d="M33.4258 46.2472C24.1488 46.2472 16.6289 38.7273 16.6289 29.4503V27.7706C16.6289 18.4943 24.1488 10.9738 33.4258 10.9738H58.7891C68.0661 10.9738 75.586 18.4943 75.586 27.7706V29.4503C75.586 38.7273 68.0661 46.2472 58.7891 46.2472H33.4258ZM20.1563 62.4929C17.6899 62.4929 15.5345 61.1623 14.366 59.1814C13.3056 59.4846 12.3051 60.0534 11.4698 60.8893L6.54688 65.8123C8.35254 68.6907 10.4889 71.3401 12.9034 73.7075L18.596 68.0155C20.1071 66.5045 20.7475 64.4528 20.5178 62.4824C20.3977 62.489 20.2777 62.4929 20.1563 62.4929ZM78.0937 57.3259C76.9218 56.1541 75.4252 55.5065 73.8938 55.3811C73.9017 55.5111 73.9063 55.6416 73.9063 55.7742C73.9063 58.6933 72.0435 61.1774 69.442 62.1038C69.7687 62.9601 70.2772 63.7625 70.9675 64.4521L76.4868 69.9721C78.6475 67.2932 80.4925 64.3504 81.9668 61.199L78.0937 57.3259ZM60.4688 55.7742C60.4688 55.101 60.5692 54.4514 60.7529 53.8386C57.9263 51.676 54.3924 50.3906 50.5586 50.3906H41.9922C32.7152 50.3906 25.1953 57.9105 25.1953 67.1875V75.586C25.1953 78.1921 25.7891 80.6591 26.8481 82.8598C31.8354 84.8833 37.2865 86 43 86C51.9221 86 60.2096 83.2823 67.0793 78.6304C67.2604 77.6429 67.3555 76.6253 67.3555 75.586V67.1875C67.3555 65.5505 67.1199 63.9679 66.6836 62.4719C63.2088 62.2141 60.4688 59.3146 60.4688 55.7742Z" fill="#2ABBC7"/>
<path d="M57.4453 32.8097H28.5547C24.3804 32.8097 20.9961 29.426 20.9961 25.2511C20.9961 21.0768 24.3804 17.6925 28.5547 17.6925H57.4453C61.6196 17.6925 65.0039 21.0768 65.0039 25.2511C65.0039 29.426 61.6196 32.8097 57.4453 32.8097Z" fill="#013F69"/>
<path d="M57.4453 32.8097H32.7539C28.5796 32.8097 25.1953 29.426 25.1953 25.2511C25.1953 21.0768 28.5796 17.6925 32.7539 17.6925H57.4453C61.6196 17.6925 65.0039 21.0768 65.0039 25.2511C65.0039 29.426 61.6196 32.8097 57.4453 32.8097Z" fill="#015081"/>
<path d="M32.7539 21.0519C30.4345 21.0519 28.5547 22.9323 28.5547 25.2511C28.5547 27.5705 30.4345 29.4503 32.7539 29.4503C35.0733 29.4503 36.9531 27.5705 36.9531 25.2511C36.9531 22.9323 35.0733 21.0519 32.7539 21.0519ZM32.7539 26.9308C31.8261 26.9308 31.0742 26.1789 31.0742 25.2511C31.0742 24.3233 31.8261 23.5714 32.7539 23.5714C33.6817 23.5714 34.4336 24.3233 34.4336 25.2511C34.4336 26.1789 33.6817 26.9308 32.7539 26.9308ZM52.9102 21.0519C50.5907 21.0519 48.7109 22.9323 48.7109 25.2511C48.7109 27.5705 50.5907 29.4503 52.9102 29.4503C55.2296 29.4503 57.1094 27.5705 57.1094 25.2511C57.1094 22.9323 55.2296 21.0519 52.9102 21.0519ZM52.9102 26.9308C51.9824 26.9308 51.2305 26.1789 51.2305 25.2511C51.2305 24.3233 51.9824 23.5714 52.9102 23.5714C53.8379 23.5714 54.5898 24.3233 54.5898 25.2511C54.5898 26.1789 53.8379 26.9308 52.9102 26.9308Z" fill="#84DEEA"/>
<path d="M23.5156 55.7742C23.5156 57.629 22.0118 59.1335 20.1562 59.1335C18.3007 59.1335 16.7969 57.629 16.7969 55.7742C16.7969 53.9186 18.3007 52.4148 20.1562 52.4148C22.0118 52.4148 23.5156 53.9186 23.5156 55.7742ZM67.1875 52.4148C65.332 52.4148 63.8281 53.9186 63.8281 55.7742C63.8281 57.629 65.332 59.1335 67.1875 59.1335C69.043 59.1335 70.5469 57.629 70.5469 55.7742C70.5469 53.9186 69.043 52.4148 67.1875 52.4148Z" fill="#84DEEA"/>
<path d="M23.5156 55.7742C23.5156 57.1836 22.6469 58.3882 21.416 58.8869C20.8098 58.6408 20.2921 58.2229 19.922 57.694C19.7954 57.5123 19.9286 57.2708 20.151 57.2715H20.1563C21.0289 57.2715 21.7277 56.5248 21.6483 55.6358C21.5919 55.0098 21.1319 54.4744 20.5224 54.3215C20.3944 54.2894 20.2691 54.2756 20.1471 54.2763C19.9266 54.2776 19.796 54.0348 19.922 53.8544C20.2921 53.3249 20.8098 52.9069 21.4167 52.6609C22.6469 53.1595 23.5156 54.3642 23.5156 55.7742ZM68.4473 52.6609C67.8403 52.9069 67.3227 53.3249 66.9533 53.8544C66.8266 54.0348 66.9579 54.2776 67.1777 54.2763C67.2997 54.2756 67.4257 54.2901 67.5536 54.3215C68.1632 54.4744 68.6231 55.0098 68.6789 55.6358C68.7589 56.5248 68.0602 57.2715 67.1875 57.2715C67.1855 57.2715 67.1836 57.2715 67.1816 57.2715C66.9598 57.2708 66.826 57.5123 66.9533 57.694C67.3227 58.2235 67.8403 58.6415 68.4473 58.8869C69.6775 58.3882 70.5469 57.1836 70.5469 55.7742C70.5469 54.3649 69.6782 53.1595 68.4473 52.6609Z" fill="#D3F1F5"/>
<path d="M55.4297 55.4297C56.3575 55.4297 57.1094 56.1816 57.1094 57.1094C57.1094 58.0371 56.3575 58.7891 55.4297 58.7891C54.5019 58.7891 53.75 58.0371 53.75 57.1094C53.75 56.1816 54.5019 55.4297 55.4297 55.4297ZM48.7109 57.1094C48.7109 58.0371 49.4629 58.7891 50.3906 58.7891C51.3184 58.7891 52.0703 58.0371 52.0703 57.1094C52.0703 56.1816 51.3184 55.4297 50.3906 55.4297C49.4629 55.4297 48.7109 56.1816 48.7109 57.1094Z" fill="#0995A3"/>
<path d="M45.3516 55.4297C46.2793 55.4297 47.0312 56.1816 47.0312 57.1094C47.0312 58.0371 46.2793 58.7891 45.3516 58.7891C44.4238 58.7891 43.6719 58.0371 43.6719 57.1094C43.6719 56.1816 44.4238 55.4297 45.3516 55.4297Z" fill="#84DEEA"/>
</g>
<defs>
<clipPath id="clip0">
<rect width="86" height="86" fill="white"/>
</clipPath>
</defs>
</svg>
