<svg width="86" height="86" viewBox="0 0 86 86" fill="none" xmlns="http://www.w3.org/2000/svg">
<path d="M43 86C19.2518 86 0 66.7482 0 43C0 19.2518 19.2518 0 43 0C66.7482 0 86 19.2518 86 43C86 66.7482 66.7482 86 43 86Z" fill="#FA4654"/>
<path d="M8.24202 68.3213C16.0626 79.0377 28.7191 86 42.9998 86C57.2805 86 69.9369 79.0377 77.7576 68.3213H8.24202Z" fill="#D48D77"/>
<path d="M22.0742 68.3213V80.5746C23.1942 81.1974 24.3429 81.7747 25.5142 82.2963V68.3213H22.0742Z" fill="#EEA47D"/>
<path d="M8.24347 68.3213C9.07962 69.4699 9.97406 70.5758 10.9209 71.6353V68.3213H8.24347Z" fill="#EEA47D"/>
<path d="M52.3166 68.3213V75.4163C52.3166 76.367 53.0876 77.138 54.0383 77.138C54.9873 77.138 55.7583 76.367 55.7583 75.4163V68.3213H52.3166Z" fill="#EEA47D"/>
<path d="M34.6501 73.5602V85.1887C35.7822 85.4121 36.9295 85.5901 38.0918 85.7211V73.5602C38.0918 72.6112 37.3208 71.8402 36.3718 71.8402C35.4218 71.8409 34.6503 72.6088 34.6501 73.5602Z" fill="#EEA47D"/>
<path d="M14.2419 73.0043V74.9661C15.3388 75.9571 16.4877 76.8894 17.6836 77.7595V73.0043C17.5949 70.7239 14.3303 70.7248 14.2419 73.0043Z" fill="#EEA47D"/>
<path d="M44.2375 68.3213V85.9815C45.3879 85.9503 46.5343 85.8718 47.6775 85.7481V68.3213H44.2375Z" fill="#EEA47D"/>
<path d="M58.5068 77.3697V83.1193C59.6792 82.6658 60.8264 82.1619 61.9468 81.611V77.3697C61.8598 75.0887 58.5931 75.0899 58.5068 77.3697Z" fill="#EEA47D"/>
<path d="M69.9033 68.4086V76.545C71.1034 75.5816 72.2521 74.5536 73.3433 73.4679V68.4086C73.3433 68.3801 73.3433 68.3498 73.3416 68.3213H69.9049C69.9033 68.3515 69.9033 68.3801 69.9033 68.4086Z" fill="#EEA47D"/>
<path d="M38.4828 55.4337H47.5182C49.1179 55.4337 50.4148 56.7306 50.4148 58.3303V70.2623H35.5863V58.3303C35.5862 56.7304 36.8831 55.4337 38.4828 55.4337Z" fill="#334353"/>
<path d="M26.0119 70.2621H59.9883C61.7232 70.2621 63.1296 71.6685 63.1296 73.4036C63.1296 75.1386 61.7232 76.5451 59.9883 76.5451H26.0117C24.2768 76.5451 22.8702 75.1387 22.8702 73.4036C22.8704 71.6685 24.2768 70.2621 26.0119 70.2621Z" fill="#334353"/>
<path d="M32.5252 70.2621H53.4746C54.5444 70.2621 55.4116 71.1293 55.4116 72.1991C55.4116 73.2689 54.5444 74.1361 53.4746 74.1361H32.5252C31.4554 74.1361 30.5882 73.2689 30.5882 72.1991C30.5884 71.1293 31.4554 70.2621 32.5252 70.2621Z" fill="#3E4E60"/>
<path d="M11.0322 21.2532V56.6997C11.0322 57.6662 11.3195 58.5695 11.8158 59.3248C12.4385 60.2913 13.3982 61.0118 14.5324 61.3275C14.9459 61.4473 15.3878 61.5105 15.8341 61.5105H70.1661C70.6212 61.5105 71.0542 61.4473 71.4679 61.3275C72.602 61.0119 73.562 60.2913 74.1844 59.3248C74.6808 58.5695 74.968 57.6662 74.968 56.6997V21.2532C74.968 20.8069 74.9049 20.3652 74.7875 19.9515C74.339 18.3472 73.0787 17.0804 71.4679 16.6319C71.0543 16.5143 70.6124 16.4512 70.1661 16.4512H15.8341C15.3791 16.4512 14.9461 16.5143 14.5324 16.6319C12.9281 17.0804 11.6613 18.3407 11.2128 19.9515C11.0954 20.365 11.0322 20.8069 11.0322 21.2532Z" fill="#3F5D77"/>
<path d="M67.9653 21.2533V56.6997C67.9653 57.6662 68.2527 58.5695 68.7511 59.3249C69.3736 60.2914 70.3335 61.0118 71.4676 61.3276C72.6018 61.012 73.5617 60.2914 74.1842 59.3249C74.6805 58.5695 74.9678 57.6662 74.9678 56.6997V21.2533C74.9678 19.0547 73.492 17.2002 71.4676 16.632C69.4434 17.2002 67.9653 19.0547 67.9653 21.2533Z" fill="#3E4E60"/>
<path d="M11.0325 21.2533V56.6997C11.0325 57.6662 11.3197 58.5695 11.816 59.3249C12.4387 60.2914 13.3985 61.0118 14.5326 61.3276C15.6667 61.012 16.6267 60.2914 17.2492 59.3249C17.7477 58.5695 18.0349 57.6662 18.0349 56.6997V21.2533C18.0349 19.0482 16.5504 17.1936 14.5324 16.632C12.517 17.1936 11.0325 19.0482 11.0325 21.2533Z" fill="#3F6C8E"/>
<path d="M11.0322 51.6017V56.6997C11.0322 57.6662 11.3195 58.5695 11.8158 59.3249C12.4385 60.2914 13.3982 61.0118 14.5324 61.3276C14.9459 61.4473 15.3878 61.5105 15.8341 61.5105H70.1661C70.6212 61.5105 71.0542 61.4473 71.4679 61.3276C72.602 61.012 73.562 60.2914 74.1844 59.3249C74.6808 58.5695 74.968 57.6662 74.968 56.6997V51.6017H11.0322Z" fill="#3E4E60"/>
<path d="M67.9653 51.6017V56.6997C67.9653 57.6662 68.2527 58.5695 68.7511 59.3249C69.3736 60.2914 70.3335 61.0118 71.4676 61.3276C72.6018 61.012 73.5617 60.2914 74.1842 59.3249C74.6805 58.5695 74.9678 57.6662 74.9678 56.6997V51.6017H67.9653Z" fill="#334353"/>
<path d="M11.0325 51.6017V56.6997C11.0325 57.6662 11.3197 58.5695 11.816 59.3249C12.4387 60.2914 13.3985 61.0118 14.5326 61.3276C15.6667 61.012 16.6267 60.2914 17.2492 59.3249C17.7477 58.5695 18.0349 57.6662 18.0349 56.6997V51.6017H11.0325Z" fill="#3F5D77"/>
<path d="M39.1762 56.5559H46.8245C47.8098 56.5559 48.6086 57.3546 48.6086 58.3401C48.6086 59.3254 47.8099 60.1242 46.8245 60.1242H39.1762C38.1909 60.1242 37.392 59.3255 37.392 58.3401C37.392 57.3548 38.1909 56.5559 39.1762 56.5559Z" fill="#334353"/>
<path d="M28.743 19.9527H51.4983C52.4651 19.9527 53.249 19.1689 53.249 18.2019C53.249 17.2351 52.4653 16.4512 51.4983 16.4512H28.743C27.7762 16.4512 26.9923 17.2349 26.9923 18.2019C26.9923 19.1687 27.776 19.9527 28.743 19.9527Z" fill="#3F6C8E"/>
<path d="M17.5651 55.2609H68.4337C70.1084 55.2609 71.4661 53.9032 71.4661 52.2285V22.9849C71.4661 21.3102 70.1084 19.9525 68.4337 19.9525H17.5652C15.8906 19.9525 14.5329 21.3102 14.5329 22.9849V52.2285C14.5329 53.9032 15.8904 55.2609 17.5651 55.2609Z" fill="#6C53A2"/>
<path d="M31.1685 19.9532C36.4964 35.4685 47.8679 48.1737 62.4711 55.2619H68.434C70.1087 55.2619 71.4675 53.9031 71.4675 52.2284V22.9851C71.4675 21.3104 70.1087 19.9532 68.434 19.9532H31.1685Z" fill="#7960BF"/>
<path d="M17.4251 46.5004C17.5259 46.3493 17.6653 46.2401 17.8416 46.1712L22.5431 44.1573C22.6539 44.1153 22.7598 44.0934 22.8606 44.0934C23.0302 44.0934 23.1713 44.1455 23.2855 44.2513C23.3997 44.3572 23.4568 44.4949 23.4568 44.6629C23.4568 44.8829 23.351 45.0391 23.1394 45.1332L18.6664 47.0077L23.1394 48.8839C23.351 48.9763 23.4568 49.1325 23.4568 49.3525C23.4568 49.5222 23.3997 49.6582 23.2855 49.7641C23.1713 49.8699 23.0302 49.922 22.8606 49.922C22.743 49.922 22.6372 49.9018 22.5431 49.8598L17.8416 47.8576C17.6653 47.7804 17.5259 47.6695 17.4251 47.5217C17.3226 47.3739 17.2722 47.2025 17.2722 47.0077C17.2722 46.8229 17.3226 46.6533 17.4251 46.5004ZM25.0593 46.786C25.1819 46.6718 25.365 46.6147 25.6102 46.6147H28.2204C28.4657 46.6147 28.6504 46.6718 28.7714 46.786C28.894 46.9002 28.9561 47.0547 28.9561 47.2479C28.9561 47.4427 28.894 47.5956 28.7714 47.7048C28.6504 47.8156 28.4657 47.8694 28.2204 47.8694H25.6102C25.365 47.8694 25.1819 47.8156 25.0593 47.7048C24.9367 47.5956 24.8762 47.4427 24.8762 47.2479C24.8762 47.0547 24.9367 46.9002 25.0593 46.786ZM30.5586 46.786C30.6812 46.6718 30.8643 46.6147 31.1095 46.6147H33.7197C33.965 46.6147 34.1497 46.6718 34.2707 46.786C34.3933 46.9002 34.4554 47.0547 34.4554 47.2479C34.4554 47.4427 34.3933 47.5956 34.2707 47.7048C34.1497 47.8156 33.965 47.8694 33.7197 47.8694H31.1095C30.8643 47.8694 30.6812 47.8156 30.5586 47.7048C30.4359 47.5956 30.3755 47.4427 30.3755 47.2479C30.3755 47.0547 30.4359 46.9002 30.5586 46.786ZM36.0579 46.786C36.1805 46.6718 36.3652 46.6147 36.6088 46.6147H39.2207C39.4643 46.6147 39.649 46.6718 39.7717 46.786C39.8943 46.9002 39.9547 47.0547 39.9547 47.2479C39.9547 47.4427 39.8943 47.5956 39.7717 47.7048C39.649 47.8156 39.4643 47.8694 39.2207 47.8694H36.6088C36.3652 47.8694 36.1805 47.8156 36.0579 47.7048C35.9352 47.5956 35.8748 47.4427 35.8748 47.2479C35.8748 47.0547 35.9352 46.9002 36.0579 46.786ZM39.8842 41.1859C40.0152 41.0717 40.1664 41.0146 40.3343 41.0146C40.4704 41.0146 40.593 41.0515 40.7022 41.1288C40.8131 41.2044 40.892 41.322 40.9424 41.4832L43.8835 50.6963C43.9087 50.7719 43.9205 50.8475 43.9205 50.9231C43.9205 51.1011 43.855 51.2472 43.724 51.3615C43.5929 51.4757 43.4434 51.5311 43.2755 51.5311C43.1394 51.5311 43.0168 51.4941 42.9076 51.4186C42.7968 51.3413 42.7178 51.2237 42.6658 51.0625L39.7263 41.8511C39.7011 41.7738 39.6893 41.6982 39.6893 41.6226C39.6893 41.4446 39.7549 41.3001 39.8842 41.1859ZM45.3482 48.8839L49.7775 47.0262L49.8212 47.0077L49.6885 46.9523L45.3482 45.1332C45.1366 45.0391 45.0308 44.8829 45.0308 44.6629C45.0308 44.4949 45.0879 44.3572 45.2021 44.2513C45.3163 44.1455 45.4574 44.0934 45.627 44.0934C45.7278 44.0934 45.8336 44.1153 45.9428 44.1573L47.1236 44.6629L50.6443 46.1712C50.8223 46.2401 50.9617 46.3493 51.0625 46.5004C51.165 46.6533 51.2154 46.8229 51.2154 47.0077C51.2154 47.2025 51.165 47.3739 51.0625 47.5217C50.9802 47.6426 50.871 47.74 50.735 47.814C50.7064 47.8291 50.6762 47.8442 50.6443 47.8576L45.9428 49.8598C45.8504 49.9018 45.7446 49.922 45.627 49.922C45.4574 49.922 45.3163 49.8699 45.2021 49.7641C45.0879 49.6582 45.0308 49.5222 45.0308 49.3525C45.0308 49.1325 45.1366 48.9763 45.3482 48.8839ZM29.3912 38.139C29.5138 38.0247 29.6969 37.9676 29.9421 37.9676H32.5524C32.7976 37.9676 32.9824 38.0247 33.1033 38.139C33.2259 38.2532 33.2881 38.4077 33.2881 38.6009C33.2881 38.7957 33.2259 38.9486 33.1033 39.0577C32.9824 39.1669 32.7976 39.2224 32.5524 39.2224H29.9421C29.6969 39.2224 29.5138 39.1669 29.3912 39.0577C29.2686 38.9486 29.2081 38.7957 29.2081 38.6009C29.2081 38.4077 29.2686 38.2532 29.3912 38.139ZM34.8905 38.139C35.0131 38.0247 35.1962 37.9676 35.4414 37.9676H38.0517C38.2969 37.9676 38.4817 38.0247 38.6026 38.139C38.7252 38.2532 38.7874 38.4077 38.7874 38.6009C38.7874 38.7957 38.7252 38.9486 38.6026 39.0577C38.4817 39.1669 38.2969 39.2224 38.0517 39.2224H35.4414C35.1962 39.2224 35.0131 39.1669 34.8905 39.0577C34.7679 38.9486 34.7074 38.7957 34.7074 38.6009C34.7074 38.4077 34.7679 38.2532 34.8905 38.139ZM40.3898 38.139C40.5124 38.0247 40.6972 37.9676 40.9407 37.9676H43.5509C43.7962 37.9676 43.9809 38.0247 44.1036 38.139C44.2262 38.2532 44.2867 38.4077 44.2867 38.6009C44.2867 38.7957 44.2262 38.9486 44.1036 39.0577C43.9809 39.1669 43.7962 39.2224 43.5509 39.2224H40.9407C40.6972 39.2224 40.5124 39.1669 40.3898 39.0577C40.2672 38.9486 40.2067 38.7957 40.2067 38.6009C40.2067 38.4077 40.2672 38.2532 40.3898 38.139ZM45.8891 38.139C46.0117 38.0247 46.1965 37.9676 46.44 37.9676H49.0519C49.2972 37.9676 49.4802 38.0247 49.6029 38.139C49.7255 38.2532 49.7859 38.4077 49.7859 38.6009C49.7859 38.7957 49.7255 38.9486 49.6029 39.0577C49.4802 39.1669 49.2972 39.2224 49.0519 39.2224H46.44C46.1965 39.2224 46.0117 39.1669 45.8891 39.0577C45.7681 38.9486 45.706 38.7957 45.706 38.6009C45.706 38.4077 45.7681 38.2532 45.8891 38.139ZM51.3884 38.139C51.511 38.0247 51.6958 37.9676 51.941 37.9676H54.5512C54.7965 37.9676 54.9795 38.0247 55.1022 38.139C55.2248 38.2532 55.2852 38.4077 55.2852 38.6009C55.2852 38.7957 55.2248 38.9486 55.1022 39.0577C54.9795 39.1669 54.7965 39.2224 54.5512 39.2224H51.941C51.6958 39.2224 51.511 39.1669 51.3884 39.0577C51.2674 38.9486 51.2053 38.7957 51.2053 38.6009C51.2053 38.4077 51.2674 38.2532 51.3884 38.139ZM29.3912 32.2567C29.5138 32.1425 29.6969 32.0854 29.9421 32.0854H32.5524C32.7976 32.0854 32.9824 32.1425 33.1033 32.2567C33.2259 32.3709 33.2881 32.5254 33.2881 32.7186C33.2881 32.9134 33.2259 33.0663 33.1033 33.1755C32.9824 33.2847 32.7976 33.3401 32.5524 33.3401H29.9421C29.6969 33.3401 29.5138 33.2847 29.3912 33.1755C29.2686 33.0663 29.2081 32.9134 29.2081 32.7186C29.2081 32.5254 29.2686 32.3709 29.3912 32.2567ZM34.8905 32.2567C35.0131 32.1425 35.1962 32.0854 35.4414 32.0854H38.0517C38.2969 32.0854 38.4817 32.1425 38.6026 32.2567C38.7252 32.3709 38.7874 32.5254 38.7874 32.7186C38.7874 32.9134 38.7252 33.0663 38.6026 33.1755C38.4817 33.2847 38.2969 33.3401 38.0517 33.3401H35.4414C35.1962 33.3401 35.0131 33.2847 34.8905 33.1755C34.7679 33.0663 34.7074 32.9134 34.7074 32.7186C34.7074 32.5254 34.7679 32.3709 34.8905 32.2567ZM40.3898 32.2567C40.5124 32.1425 40.6972 32.0854 40.9407 32.0854H43.5509C43.7962 32.0854 43.9809 32.1425 44.1036 32.2567C44.2262 32.3709 44.2867 32.5254 44.2867 32.7186C44.2867 32.9134 44.2262 33.0663 44.1036 33.1755C43.9809 33.2847 43.7962 33.3401 43.5509 33.3401H40.9407C40.6972 33.3401 40.5124 33.2847 40.3898 33.1755C40.2672 33.0663 40.2067 32.9134 40.2067 32.7186C40.2067 32.5254 40.2672 32.3709 40.3898 32.2567ZM45.8891 32.2567C46.0117 32.1425 46.1965 32.0854 46.44 32.0854H49.0519C49.2972 32.0854 49.4802 32.1425 49.6029 32.2567C49.7255 32.3709 49.7859 32.5254 49.7859 32.7186C49.7859 32.9134 49.7255 33.0663 49.6029 33.1755C49.4802 33.2847 49.2972 33.3401 49.0519 33.3401H46.44C46.1965 33.3401 46.0117 33.2847 45.8891 33.1755C45.7681 33.0663 45.706 32.9134 45.706 32.7186C45.706 32.5254 45.7681 32.3709 45.8891 32.2567ZM51.3884 32.2567C51.511 32.1425 51.6958 32.0854 51.941 32.0854H54.5512C54.7965 32.0854 54.9795 32.1425 55.1022 32.2567C55.2248 32.3709 55.2852 32.5254 55.2852 32.7186C55.2852 32.9134 55.2248 33.0663 55.1022 33.1755C54.9795 33.2847 54.7965 33.3401 54.5512 33.3401H51.941C51.6958 33.3401 51.511 33.2847 51.3884 33.1755C51.2674 33.0663 51.2053 32.9134 51.2053 32.7186C51.2053 32.5254 51.2674 32.3709 51.3884 32.2567ZM38.5942 26.0889C38.695 25.9377 38.8344 25.8268 39.0124 25.7597L43.7139 23.7457C43.8231 23.702 43.9289 23.6819 44.0313 23.6819C44.1993 23.6819 44.3404 23.734 44.4546 23.8398C44.5688 23.9456 44.6259 24.0833 44.6259 24.2513C44.6259 24.4713 44.5201 24.6275 44.3085 24.7199L39.8355 26.5961L44.3085 28.4724C44.5201 28.5647 44.6259 28.7209 44.6259 28.941C44.6259 29.109 44.5688 29.2467 44.4546 29.3525C44.3404 29.4583 44.1993 29.5104 44.0313 29.5104C43.9121 29.5104 43.8063 29.4902 43.7139 29.4466L39.0124 27.4444C38.8344 27.3688 38.695 27.2579 38.5942 27.1101C38.4934 26.9623 38.443 26.791 38.443 26.5961C38.443 26.4097 38.4934 26.2417 38.5942 26.0889ZM46.2284 26.3744C46.351 26.2602 46.5358 26.2031 46.781 26.2031H49.3912C49.6365 26.2031 49.8195 26.2602 49.9422 26.3744C50.0648 26.4886 50.1252 26.6432 50.1252 26.8363C50.1252 27.0312 50.0648 27.184 49.9422 27.2932C49.8195 27.4024 49.6365 27.4578 49.3912 27.4578H46.781C46.5358 27.4578 46.351 27.4024 46.2284 27.2932C46.1074 27.184 46.0453 27.0312 46.0453 26.8363C46.0453 26.6432 46.1074 26.4886 46.2284 26.3744ZM51.7277 26.3744C51.8503 26.2602 52.035 26.2031 52.2803 26.2031H54.8905C55.1358 26.2031 55.3188 26.2602 55.4415 26.3744C55.5641 26.4886 55.6245 26.6432 55.6245 26.8363C55.6245 27.0312 55.5641 27.184 55.4415 27.2932C55.3188 27.4024 55.1358 27.4578 54.8905 27.4578H52.2803C52.035 27.4578 51.8503 27.4024 51.7277 27.2932C51.6067 27.184 51.5446 27.0312 51.5446 26.8363C51.5446 26.6432 51.6067 26.4886 51.7277 26.3744ZM57.2286 26.3744C57.3513 26.2602 57.5343 26.2031 57.7796 26.2031H60.3898C60.635 26.2031 60.8181 26.2602 60.9408 26.3744C61.0634 26.4886 61.1238 26.6432 61.1238 26.8363C61.1238 27.0312 61.0634 27.184 60.9408 27.2932C60.8181 27.4024 60.635 27.4578 60.3898 27.4578H57.7796C57.5343 27.4578 57.3513 27.4024 57.2286 27.2932C57.106 27.184 57.0439 27.0312 57.0439 26.8363C57.0439 26.6432 57.106 26.4886 57.2286 26.3744ZM62.8606 28.4724L67.3336 26.5961L62.8606 24.7199C62.649 24.6275 62.5432 24.4713 62.5432 24.2513C62.5432 24.0833 62.6003 23.9456 62.7145 23.8398C62.8287 23.734 62.9698 23.6819 63.1395 23.6819C63.2402 23.6819 63.3461 23.702 63.4569 23.7457L68.1567 25.7597C68.3347 25.8268 68.4742 25.9377 68.5749 26.0889C68.6774 26.2417 68.7278 26.4097 68.7278 26.5961C68.7278 26.791 68.6774 26.9623 68.5749 27.1101C68.4742 27.2579 68.3347 27.3688 68.1567 27.4444L63.4569 29.4466C63.3629 29.4902 63.257 29.5104 63.1395 29.5104C62.9698 29.5104 62.8287 29.4583 62.7145 29.3525C62.6003 29.2467 62.5432 29.109 62.5432 28.941C62.5432 28.7209 62.649 28.5647 62.8606 28.4724Z" fill="#DECEE5"/>
<path d="M62.8606 24.7199L67.3336 26.5961L62.8606 28.4724C62.649 28.5647 62.5432 28.7209 62.5432 28.941C62.5432 29.109 62.6003 29.2467 62.7145 29.3525C62.8287 29.4583 62.9698 29.5104 63.1395 29.5104C63.257 29.5104 63.3629 29.4902 63.4569 29.4466L68.1567 27.4444C68.3347 27.3688 68.4742 27.2579 68.5749 27.1101C68.6774 26.9623 68.7278 26.791 68.7278 26.5961C68.7278 26.4097 68.6774 26.2417 68.5749 26.0889C68.4742 25.9377 68.3347 25.8268 68.1567 25.7597L63.4569 23.7457C63.3461 23.702 63.2402 23.6819 63.1395 23.6819C62.9698 23.6819 62.8287 23.734 62.7145 23.8398C62.6003 23.9456 62.5432 24.0833 62.5432 24.2513C62.5432 24.4713 62.649 24.6275 62.8606 24.7199Z" fill="white"/>
<path d="M57.2286 26.3745C57.106 26.4887 57.0438 26.6432 57.0438 26.8364C57.0438 27.0312 57.106 27.1841 57.2286 27.2932C57.3512 27.4024 57.5343 27.4579 57.7795 27.4579H60.3898C60.635 27.4579 60.8181 27.4024 60.9407 27.2932C61.0633 27.1841 61.1238 27.0312 61.1238 26.8364C61.1238 26.6432 61.0633 26.4887 60.9407 26.3745C60.8181 26.2602 60.635 26.2031 60.3898 26.2031H57.7795C57.5343 26.2031 57.3512 26.2602 57.2286 26.3745Z" fill="white"/>
<path d="M54.8902 27.4579C55.1355 27.4579 55.3186 27.4024 55.4412 27.2932C55.5638 27.1841 55.6243 27.0312 55.6243 26.8364C55.6243 26.6432 55.5638 26.4887 55.4412 26.3745C55.3186 26.2602 55.1355 26.2031 54.8902 26.2031H52.28C52.0348 26.2031 51.85 26.2602 51.7274 26.3745C51.6065 26.4887 51.5443 26.6432 51.5443 26.8364C51.5443 27.0312 51.6065 27.1841 51.7274 27.2932C51.85 27.4024 52.0348 27.4579 52.28 27.4579H54.8902Z" fill="white"/>
<path d="M51.2052 38.6009C51.2052 38.7957 51.2673 38.9486 51.3883 39.0578C51.5109 39.1669 51.6957 39.2224 51.9409 39.2224H54.5511C54.7964 39.2224 54.9795 39.1669 55.1021 39.0578C55.2247 38.9486 55.2852 38.7957 55.2852 38.6009C55.2852 38.4077 55.2247 38.2532 55.1021 38.139C54.9795 38.0248 54.7964 37.9677 54.5511 37.9677H51.9409C51.6957 37.9677 51.5109 38.0248 51.3883 38.139C51.2673 38.2532 51.2052 38.4077 51.2052 38.6009Z" fill="white"/>
<path d="M51.9409 32.0853C51.6957 32.0853 51.5109 32.1424 51.3883 32.2567C51.2673 32.3709 51.2052 32.5254 51.2052 32.7186C51.2052 32.9134 51.2673 33.0663 51.3883 33.1754C51.5109 33.2846 51.6957 33.3401 51.9409 33.3401H54.5511C54.7964 33.3401 54.9795 33.2846 55.1021 33.1754C55.2247 33.0663 55.2852 32.9134 55.2852 32.7186C55.2852 32.5254 55.2247 32.3709 55.1021 32.2567C54.9795 32.1424 54.7964 32.0853 54.5511 32.0853H51.9409Z" fill="white"/>
<path d="M50.644 46.1712L47.1234 44.6628C47.9565 45.4506 48.8115 46.2132 49.6883 46.9523C49.7168 46.9774 49.747 47.001 49.7773 47.0262C50.0931 47.2932 50.4122 47.5553 50.7347 47.8139C50.8708 47.74 50.9799 47.6426 51.0622 47.5217C51.1647 47.3739 51.2151 47.2025 51.2151 47.0077C51.2151 46.8229 51.1647 46.6533 51.0622 46.5004C50.9615 46.3492 50.822 46.2401 50.644 46.1712Z" fill="white"/>
<path d="M49.9422 27.2932C50.0648 27.1841 50.1252 27.0312 50.1252 26.8364C50.1252 26.6432 50.0648 26.4887 49.9422 26.3745C49.8195 26.2602 49.6365 26.2031 49.3912 26.2031H46.781C46.5358 26.2031 46.351 26.2602 46.2284 26.3745C46.1074 26.4887 46.0453 26.6432 46.0453 26.8364C46.0453 27.0312 46.1074 27.1841 46.2284 27.2932C46.351 27.4024 46.5358 27.4579 46.781 27.4579H49.3912C49.6365 27.4579 49.8195 27.4024 49.9422 27.2932Z" fill="white"/>
<path d="M45.889 38.139C45.7681 38.2532 45.7059 38.4077 45.7059 38.6009C45.7059 38.7957 45.7681 38.9486 45.889 39.0578C46.0116 39.1669 46.1964 39.2224 46.44 39.2224H49.0519C49.2971 39.2224 49.4802 39.1669 49.6028 39.0578C49.7254 38.9486 49.7859 38.7957 49.7859 38.6009C49.7859 38.4077 49.7254 38.2532 49.6028 38.139C49.4802 38.0248 49.2971 37.9677 49.0519 37.9677H46.44C46.1964 37.9677 46.0116 38.0248 45.889 38.139Z" fill="white"/>
<path d="M45.889 32.2567C45.7681 32.3709 45.7059 32.5254 45.7059 32.7186C45.7059 32.9134 45.7681 33.0663 45.889 33.1754C46.0116 33.2846 46.1964 33.3401 46.44 33.3401H49.0519C49.2971 33.3401 49.4802 33.2846 49.6028 33.1754C49.7254 33.0663 49.7859 32.9134 49.7859 32.7186C49.7859 32.5254 49.7254 32.3709 49.6028 32.2567C49.4802 32.1424 49.2971 32.0853 49.0519 32.0853H46.44C46.1964 32.0853 46.0116 32.1424 45.889 32.2567Z" fill="white"/>
<path d="M43.5507 37.9677H40.9975C41.3301 38.3909 41.6694 38.8092 42.0138 39.2224H43.5507C43.7959 39.2224 43.9807 39.1669 44.1033 39.0578C44.2259 38.9486 44.2864 38.7957 44.2864 38.6009C44.2864 38.4077 44.2259 38.2532 44.1033 38.139C43.9807 38.0248 43.7959 37.9677 43.5507 37.9677Z" fill="white"/>
<path d="M40.3895 32.2567C40.2669 32.3709 40.2064 32.5254 40.2064 32.7186C40.2064 32.9134 40.2669 33.0663 40.3895 33.1754C40.5121 33.2846 40.6969 33.3401 40.9404 33.3401H43.5507C43.7959 33.3401 43.9807 33.2846 44.1033 33.1754C44.2259 33.0663 44.2864 32.9134 44.2864 32.7186C44.2864 32.5254 44.2259 32.3709 44.1033 32.2567C43.9807 32.1424 43.7959 32.0853 43.5507 32.0853H40.9404C40.6969 32.0853 40.5121 32.1424 40.3895 32.2567Z" fill="white"/>
<path d="M39.0127 27.4444L43.7142 29.4466C43.8065 29.4902 43.9124 29.5104 44.0316 29.5104C44.1996 29.5104 44.3407 29.4583 44.4549 29.3525C44.5691 29.2467 44.6262 29.109 44.6262 28.941C44.6262 28.7209 44.5204 28.5647 44.3088 28.4724L39.8358 26.5961L44.3088 24.7199C44.5204 24.6275 44.6262 24.4713 44.6262 24.2513C44.6262 24.0833 44.5691 23.9456 44.4549 23.8398C44.3407 23.734 44.1996 23.6819 44.0316 23.6819C43.9292 23.6819 43.8233 23.702 43.7142 23.7457L39.0127 25.7597C38.8347 25.8268 38.6952 25.9377 38.5945 26.0889C38.4937 26.2417 38.4433 26.4097 38.4433 26.5961C38.4433 26.791 38.4937 26.9623 38.5945 27.1101C38.6952 27.2579 38.8347 27.3688 39.0127 27.4444Z" fill="white"/>
<path d="M36.896 32.0853C37.153 32.5069 37.4167 32.9252 37.6872 33.3401H38.0516C38.2969 33.3401 38.4816 33.2846 38.6026 33.1754C38.7252 33.0663 38.7874 32.9134 38.7874 32.7186C38.7874 32.5254 38.7252 32.3709 38.6026 32.2567C38.4816 32.1424 38.2969 32.0853 38.0516 32.0853H36.896Z" fill="white"/>
</svg>
