<svg width="80" height="80" viewBox="0 0 80 80" fill="none" xmlns="http://www.w3.org/2000/svg">
<g clip-path="url(#clip0)">
<path d="M79.865 41.8644C79.865 35.1525 75.7131 29.2542 69.4683 26.9831C69.7384 25.5593 69.8734 24.1356 69.8734 22.678C69.8734 10.1695 59.7468 0 47.3249 0C40.0337 0 33.2827 3.49153 29.0295 9.38984C26.9367 7.76272 24.3713 6.88136 21.7046 6.88136C15.0886 6.88136 9.72152 12.2712 9.72152 18.9153C9.72152 20.3729 9.99156 21.7966 10.4641 23.1187C4.25316 25.3559 0 31.3559 0 38.0339C0 44.7797 4.18565 50.678 10.4304 52.9492C10.1603 54.339 10.0253 55.7966 10.0253 57.2543C10.0253 69.7288 20.1181 79.8644 32.5401 79.8644C39.8312 79.8644 46.5823 76.339 50.8017 70.4407C52.8945 72.1017 55.4599 73.017 58.1266 73.017C64.7426 73.017 70.1097 67.6271 70.1097 60.9831C70.1097 59.5254 69.8397 58.1017 69.3671 56.7797C75.578 54.5424 79.865 48.5424 79.865 41.8644Z" fill="white"/>
<path d="M31.3926 34.4069L48.8778 42.4069L66.498 26.8814C66.7681 25.5933 66.8694 24.3391 66.8694 22.9831C66.8694 12.0679 58.0255 3.18652 47.1563 3.18652C40.6415 3.18652 34.5993 6.40686 30.92 11.7967L27.9833 27.0848L31.3926 34.4069Z" fill="#FED10A"/>
<path d="M13.2998 52.9832C13.0297 54.2714 12.9285 55.5934 12.9285 56.9493C12.9285 67.8985 21.8061 76.7798 32.7091 76.7798C39.2576 76.7798 45.3673 73.5256 49.0466 68.1019L51.9496 52.8815L48.0677 45.4239L30.515 37.39L13.2998 52.9832Z" fill="#24BBB1"/>
<path d="M13.1985 22.6101L25.1816 25.4576L27.8145 11.7966C26.1943 10.5424 24.1689 9.86438 22.0761 9.86438C16.8778 9.86438 12.6246 14.1017 12.6246 19.3559C12.6246 20.4745 12.8272 21.5932 13.1985 22.6101Z" fill="#EF5098"/>
<path d="M12.1518 25.4913C6.81849 27.254 3.07166 32.4066 3.07166 38.0676C3.07166 43.593 6.48094 48.5083 11.578 50.4744L28.3881 35.2201L25.3164 28.61L12.1518 25.4913Z" fill="#17A8E0"/>
<path d="M52.0846 68.1015C53.7386 69.3557 55.7302 70.0676 57.7892 70.0676C62.9875 70.0676 67.2407 65.8303 67.2407 60.5761C67.2407 59.4235 67.0382 58.3049 66.6669 57.2879L54.7175 54.4744L52.0846 68.1015Z" fill="#93C83E"/>
<path d="M54.5146 51.3221L67.6792 54.4069C73.0463 52.6442 76.7594 47.4916 76.7594 41.7967C76.7594 36.3052 73.3501 31.356 68.253 29.4238L51.0378 44.5764L54.5146 51.3221Z" fill="#0779A1"/>
</g>
<defs>
<clipPath id="clip0">
<rect width="80" height="80" fill="white"/>
</clipPath>
</defs>
</svg>
