<svg width="60" height="85" viewBox="0 0 60 85" fill="none" xmlns="http://www.w3.org/2000/svg">
<path d="M5.46041 78.1734L0 16.7085H60L54.5339 78.1635L29.9633 84.9999L5.46041 78.1734Z" fill="#FFCC33"/>
<path d="M29.9999 79.7745L49.8543 74.2505L54.5256 21.7343H29.9999V79.7745Z" fill="#F8DC3D"/>
<path d="M30.0414 42.5065V50.0447L39.2906 52.0691L38.4188 61.8456L30.0414 64.1151V71.9581L45.4402 67.6748L45.5528 66.4013L47.501 46.5553L30.0414 42.5065Z" fill="white"/>
<path d="M45.3708 28.8955L29.9719 24.6123V32.4552L45.3791 36.8113L45.3708 28.8955Z" fill="white"/>
<path d="M30.0674 42.5064L20.3335 44.5308L21.5992 34.7195L29.965 32.4524L29.998 32.4617V24.6184L29.9633 24.6086L14.5768 28.8955L12.5919 44.5308H12.5883L12.5895 44.5468L12.5883 44.5579H12.5907L13.2582 52.0691H13.2947L14.6459 67.6748L30.0327 71.9616L30.0674 71.9517V64.1084L30.0343 64.1179L21.6686 61.8506L20.8325 52.0691L30.0674 50.0446V42.5064Z" fill="#EBEBEB"/>
<path d="M40.6294 3.14734H35.6494L40.8283 8.78712V11.4715H30.161V8.32859H35.339L30.161 2.68861V0H40.6294V3.14734Z" fill="black"/>
<path d="M28.021 3.27508V0H18.8285V11.4715H28.021V8.19701H22.6476V7.05282H27.8193V4.41887H22.6476V3.27508H28.021Z" fill="black"/>
</svg>
