<svg width="21" height="20" viewBox="0 0 21 20" fill="none" xmlns="http://www.w3.org/2000/svg">
<path fill-rule="evenodd" clip-rule="evenodd" d="M10.5 0C4.70144 0 0 4.59122 0 10.2538C0 14.7839 3.00795 18.6281 7.18082 19.983C7.70591 20.0781 7.89891 19.7606 7.89891 19.4889C7.89891 19.2444 7.88847 18.4362 7.885 17.5804C4.96225 18.2002 4.34675 16.3715 4.34675 16.3715C3.8686 15.1864 3.18182 14.8705 3.18182 14.8705C2.22901 14.2338 3.2531 14.2474 3.2531 14.2474C4.30676 14.3204 4.86314 15.3035 4.86314 15.3035C5.8003 16.8707 7.31992 16.4174 7.91803 16.1559C8.01192 15.4937 8.2849 15.0403 8.58395 14.7839C6.25236 14.5242 3.8008 13.6446 3.8008 9.7173C3.8008 8.59836 4.21113 7.68317 4.88227 6.96494C4.77273 6.70685 4.41456 5.66432 4.98311 4.25164C4.98311 4.25164 5.86463 3.97657 7.87109 5.30266C8.70914 5.07513 9.60631 4.96137 10.5 4.95798C11.392 4.96137 12.2909 5.07513 13.1307 5.30266C15.1354 3.97657 16.0152 4.25164 16.0152 4.25164C16.5872 5.66432 16.2273 6.70685 16.1177 6.96494C16.7906 7.68317 17.1975 8.59836 17.1975 9.7173C17.1975 13.6548 14.7407 14.5225 12.4039 14.7771C12.7812 15.0947 13.1167 15.7195 13.1167 16.6754C13.1167 18.0474 13.1046 19.151 13.1046 19.4889C13.1046 19.7623 13.2941 20.0815 13.8261 19.9813C17.9955 18.6247 21 14.7822 21 10.2538C21 4.59122 16.2986 0 10.5 0Z" fill="#b2b2b2"/>
</svg>
