<svg width="66" height="90" viewBox="0 0 66 90" fill="none" xmlns="http://www.w3.org/2000/svg">
<path d="M0.159891 47.3294C0.979359 45.2997 2.74281 44.6479 4.66781 44.3338C6.24953 44.0755 6.31347 44.1397 6.21083 42.5321C6.00554 39.3187 5.74304 36.1087 5.48896 32.8971C5.08848 27.8549 4.95891 22.8213 6.07622 17.8416C6.20074 17.2894 6.14689 17.0632 5.57646 16.8166C3.71877 16.0129 2.35411 14.7279 1.99738 12.6121C1.45051 9.37166 3.95267 5.89823 7.26924 5.21604C8.97044 4.86651 10.5387 5.18734 12.0413 5.96747C12.3594 6.13295 12.5613 6.21231 12.9029 5.93538C16.2413 3.23196 20.1637 1.86082 24.3064 1.0216C26.3055 0.616334 28.3213 0.317454 30.3557 0.168859C30.4752 0.160416 30.5711 0.135087 30.5963 0C30.8773 0 31.1567 0 31.4377 0C32.5348 0.192499 33.6403 0.0354603 34.7408 0.0861179C35.0891 0.0861179 35.4357 0.0861179 35.784 0.0861179C36.0751 0.109758 36.3747 0.028706 36.6607 0.146907C41.1602 0.400195 45.5335 1.16344 49.5131 3.43796C50.2636 3.86686 50.9837 4.35993 51.6602 4.8969C52.0304 5.19072 52.2643 5.20591 52.6698 4.96613C57.208 2.29479 61.8236 5.25657 62.6313 9.56247C63.1058 12.092 61.7664 14.5911 59.1296 15.7917C58.5743 16.045 58.4969 16.2526 58.6349 16.8285C59.7724 21.592 60.1308 26.4416 60.1864 31.325C60.2318 35.2796 60.3025 39.2326 60.3277 43.1873C60.3311 43.7614 60.5162 43.9269 61.0647 43.9708C62.7255 44.1076 64.2383 44.6361 65.3488 45.9549C66.1969 46.963 66.1885 47.3632 65.47 48.5131C65.4279 48.5806 65.3993 48.6651 65.3875 48.7444C65.1688 50.1696 64.1474 50.4752 62.7003 50.0396C62.002 49.8302 61.408 49.4148 60.6727 48.9893C60.7686 50.5968 60.8864 52.1132 60.9453 53.6312C61.2027 60.1643 61.2852 66.684 59.1852 73.0044C58.2042 75.9577 56.8479 78.6949 54.647 80.939C54.3037 81.2886 54.4232 81.4203 54.7412 81.6736C56.1311 82.7847 57.4082 83.992 57.871 85.8106C58.184 87.0365 57.7599 87.842 56.3027 88.8264C55.3638 89.4596 54.4434 89.4326 53.5111 88.7336C52.8566 88.2422 52.3484 87.6039 51.8066 87.0011C51.5441 86.7089 51.3068 86.3966 51.041 86.1095C49.7991 84.7721 49.7688 84.7806 48.0979 85.5354C44.6568 87.0889 41.0323 87.9078 37.285 88.2878C32.8612 88.7369 28.4694 88.612 24.1045 87.7626C22.2973 87.4114 20.4985 86.9825 18.8175 86.2311C17.7339 85.7464 16.8235 85.9795 15.8896 86.4979C14.9776 87.0061 14.2271 87.7272 13.4312 88.3908C12.8272 88.894 12.2029 89.3685 11.4961 89.7129C10.4764 90.2094 9.69567 90.0709 8.95024 89.203C8.60361 88.7977 8.02308 88.7167 7.77068 88.1763C7.21035 86.9724 7.419 85.8984 8.18294 84.8785C9.09159 83.6678 10.3856 82.9113 11.6223 81.986C9.65865 80.1403 8.19135 78.0026 7.21035 75.5237C6.04256 72.5738 5.53607 69.4904 5.40482 66.3496C5.20627 61.6081 5.55963 56.8817 5.99376 52.1604C6.08799 51.1321 6.13006 50.0987 6.19737 49.045C5.65891 49.1159 5.25507 49.4114 4.82935 49.6698C4.01324 50.1645 3.17863 50.5867 2.17238 50.5479C1.56157 50.5242 1.1022 50.2507 0.920465 49.7323C0.726956 49.175 0.424073 48.7022 0.131286 48.2092C0.0690262 47.917 0.0370551 47.6215 0.159891 47.3294Z" fill="#010202"/>
<path d="M34.8082 0.162104C33.6875 0.0709207 32.5466 0.378244 31.4377 0C32.5584 0 33.6791 0 34.7998 0C34.8536 0.0337717 34.8721 0.0692321 34.857 0.106381C34.8418 0.14353 34.825 0.162104 34.8082 0.162104Z" fill="#383635"/>
<path d="M34.808 0.162104C34.7945 0.10807 34.7912 0.0540348 34.8013 0C35.1378 0 35.4744 0 35.8092 0C35.858 0.0270174 35.8782 0.057412 35.8664 0.0911837C35.8546 0.126644 35.8412 0.145218 35.826 0.145218C35.4861 0.150284 35.1462 0.157039 34.808 0.162104Z" fill="#686564"/>
<path d="M35.8262 0.145218C35.8161 0.0979381 35.8093 0.048969 35.8093 0C36.0903 0 36.3697 0 36.6507 0C36.6423 0.0506576 36.6456 0.0996266 36.6608 0.146907C36.3814 0.146907 36.1038 0.146907 35.8262 0.145218Z" fill="#AAA7A7"/>
<path d="M0.159855 47.3293C0.151442 47.6248 0.144711 47.9187 0.136298 48.2142L0.0605767 48.2344L0 48.1821C0 47.9018 0 47.6198 0 47.3395C0.0555286 47.3716 0.107692 47.3682 0.159855 47.3293Z" fill="#777473"/>
<path d="M59.705 35.3624C59.6428 41.9716 60.1694 48.3156 60.4622 54.6714C60.7281 60.4143 60.5935 66.1403 59.0336 71.7616C57.0178 79.0259 52.3786 83.6915 45.3382 86.0589C39.7938 87.9231 34.0811 88.3148 28.2926 87.8167C23.9176 87.4401 19.7261 86.3915 15.829 84.2842C10.6631 81.4913 7.6915 77.1279 6.56074 71.4273C5.78165 67.4929 5.78838 63.523 5.99199 59.5379C6.23766 54.6968 6.89391 49.8758 6.81819 45.0178C6.76266 41.4565 6.43117 37.9105 6.12324 34.3645C5.62348 28.5979 5.37108 22.8416 6.76266 17.1443C8.71962 9.13529 13.8468 4.29918 21.683 2.20195C25.6643 1.13646 29.7179 0.472841 33.8455 0.545451C37.8436 0.616371 41.8315 0.935514 45.6495 2.27625C51.9024 4.47142 55.9106 8.7638 57.669 15.1906C58.8805 19.618 59.3954 24.1316 59.5956 28.701C59.6966 31.0025 59.6495 33.3024 59.705 35.3624Z" fill="#53C6D8"/>
<path d="M52.5771 5.63142C54.667 4.3768 56.7536 3.99855 58.8973 5.20589C60.9771 6.37777 62.1331 8.2082 62.1634 10.6026C62.1954 13.1119 60.4824 14.6063 58.7156 15.405C58.4093 15.5434 58.2714 15.4843 58.1687 15.1567C57.8255 14.0676 57.4721 12.9801 57.0851 11.9062C56.9925 11.6495 57.0194 11.5043 57.1928 11.3169C57.8944 10.5553 57.9079 9.71442 57.4149 8.84818C56.9269 7.99037 56.1815 7.66279 55.2207 7.89244C54.8336 7.98531 54.5812 7.8384 54.3625 7.5429C53.8627 6.86915 53.2586 6.2849 52.5771 5.63142Z" fill="#53C6D8"/>
<path d="M12.0733 6.65975C11.2118 7.50574 10.3536 8.35341 9.69231 9.36487C9.38943 9.82923 9.08991 9.47969 8.82573 9.3902C7.35506 8.89544 6.38079 9.25173 5.85747 10.5148C5.42166 11.5702 5.67911 12.3672 6.83848 13.1355C7.30122 13.4428 7.38535 13.6877 7.16155 14.1773C6.91925 14.7076 6.71059 15.2699 6.6029 15.8389C6.48175 16.489 6.24954 16.5785 5.66733 16.305C2.27671 14.7211 1.41518 11.0264 3.76926 8.07479C5.88776 5.41864 9.37092 4.81582 12.0733 6.65975Z" fill="#53C6D8"/>
<path d="M16.8875 85.4932C15.57 85.9018 14.6041 86.6566 13.6719 87.4654C12.9113 88.1257 12.1474 88.7792 11.2388 89.2334C10.6044 89.5508 10.0087 89.5627 9.4854 88.997C8.9604 88.4296 9.37098 87.9585 9.63684 87.4857C9.86905 87.072 10.1517 86.687 10.3924 86.2767C10.4799 86.1281 10.4799 85.9035 10.3301 85.8191C10.1703 85.7296 10.0121 85.8664 9.92458 86.0234C9.50559 86.7731 8.91497 87.4249 8.67434 88.2928C7.89358 87.533 7.78757 86.4776 8.3967 85.5405C9.2616 84.2115 10.596 83.4145 11.8428 82.5179C12.0094 82.398 12.1255 82.4014 12.2837 82.5196C13.0022 83.0515 13.7073 83.6053 14.4577 84.09C15.1998 84.5712 15.9907 84.9798 16.8875 85.4932Z" fill="#FED29C"/>
<path d="M50.0632 84.5206C51.3522 83.7742 52.4796 82.9519 53.5397 82.035C53.7163 81.8813 53.8459 81.6399 54.1522 81.883C55.4377 82.8979 56.624 83.9988 57.2517 85.5608C57.5243 86.2396 57.5327 86.9252 57.011 87.5297C56.762 87.8201 56.6055 87.8691 56.4558 87.4317C56.2505 86.8255 56.0166 86.2244 55.6245 85.7043C55.4865 85.5219 55.288 85.3058 55.0743 85.4527C54.8236 85.6266 55.0305 85.8445 55.1719 86.0167C55.5135 86.4372 55.7305 86.9252 55.8685 87.4368C55.9476 87.7289 56.3565 88.0177 56.0065 88.3368C55.6464 88.6678 55.1904 88.8366 54.6889 88.7117C53.9788 88.5344 53.4656 88.0481 52.9928 87.5297C52.0757 86.5182 51.2849 85.3852 50.0632 84.5206Z" fill="#FED29C"/>
<path d="M2.1049 47.8901C1.87269 47.8732 1.7448 48.0454 1.57149 48.1248C1.33591 48.2329 1.09865 48.503 0.814279 48.2582C0.504665 47.9914 0.580386 47.6317 0.718366 47.3278C0.964038 46.7891 1.32918 46.3248 1.82557 45.9887C2.9597 45.2221 4.20657 44.8202 5.58301 44.7865C6.10464 44.7746 6.38229 44.8878 6.2746 45.4669C6.24935 45.6037 6.26618 45.7456 6.25104 45.8857C6.16186 46.7131 6.59599 47.8327 6.00873 48.3105C5.09671 49.0535 3.9996 49.6935 2.7948 49.9873C2.28999 50.1106 1.76836 50.1055 1.45707 49.5888C1.26019 49.2629 1.07173 48.9015 1.65226 48.6871C1.98375 48.5638 2.33206 48.3679 2.1049 47.8901Z" fill="#FED29C"/>
<path d="M61.0497 44.474C62.4379 44.6851 63.7689 45.0684 64.7802 46.1406C65.0242 46.4007 65.211 46.7215 65.386 47.0372C65.5425 47.3209 65.5593 47.6384 65.3119 47.8934C65.041 48.1703 64.797 47.9204 64.5547 47.814C64.3494 47.7228 64.1441 47.3699 63.9321 47.6789C63.7453 47.9474 64.0499 48.1196 64.2535 48.2632C64.5143 48.4472 65.0006 48.4472 64.7516 49.0112C64.5429 49.484 64.2266 49.7204 63.7218 49.6985C62.8821 49.6613 62.2023 49.2071 61.4737 48.8575C60.7451 48.5063 60.491 47.9727 60.5095 47.1926C60.5264 46.4952 60.4641 45.7928 60.385 45.0988C60.3244 44.5533 60.5163 44.3625 61.0497 44.474Z" fill="#FED19B"/>
<path d="M28.8833 21.1647C28.8513 20.0806 29.4655 19.3866 30.3405 18.929C31.7742 18.181 33.2869 18.11 34.7778 18.7264C35.6999 19.108 36.3679 19.7632 36.2854 20.8928C36.1508 21.1427 36.3746 21.4383 36.1895 21.6831C35.8311 22.2167 35.3078 22.5223 34.7256 22.7503C33.4097 23.2636 32.0383 23.2467 30.6838 23.0508C29.8845 22.9343 29.1172 22.6 28.7874 21.7236C28.7335 21.5227 28.7941 21.342 28.8833 21.1647Z" fill="#010201"/>
<path d="M50.9603 14.0085C50.9519 15.6751 49.8699 17.7504 47.7076 19.1536C44.4634 21.2593 41.019 21.5666 37.561 19.7412C33.1053 17.389 32.1714 11.4401 35.668 7.81475C38.2897 5.09612 41.5356 4.23663 45.1668 5.10625C48.6937 5.94886 50.962 9.17068 50.9603 14.0085Z" fill="#030505"/>
<path d="M21.6881 5.72766C25.7366 5.72766 28.9388 8.05285 29.7162 11.6326C30.8772 16.9804 27.6044 20.6294 22.9232 21.5531C20.3503 22.0597 17.897 21.6899 15.7566 20.084C11.0838 16.5802 11.8612 9.29058 17.1566 6.73406C18.602 6.03498 19.9902 5.72766 21.6881 5.72766Z" fill="#030505"/>
<path d="M28.8832 21.1648C28.895 21.3472 28.9051 21.5295 28.9168 21.7119C28.7116 22.0851 28.2959 22.1746 27.9796 22.3924C27.0087 23.0611 26.487 24.3427 26.8084 25.317C27.0928 26.1782 27.7928 26.6156 28.6914 26.4872C29.5007 26.3707 30.2731 26.1056 31.0303 25.8185C32.2166 25.3677 33.3776 25.4167 34.5589 25.8304C35.2202 26.0617 35.8596 26.3538 36.5377 26.5328C37.5002 26.7878 38.2389 26.5109 38.7084 25.7274C39.1425 25.0013 39.0197 24.211 38.3634 23.5069C37.8822 22.9919 37.3572 22.5359 36.7396 22.1847C36.4923 22.0429 36.1288 21.9821 36.1406 21.5718C36.1659 21.3404 36.0716 21.0838 36.2836 20.8929C36.3072 21.2543 36.6303 21.2796 36.8591 21.4147C37.6769 21.901 38.4896 22.3941 39.0803 23.1692C39.8375 24.1671 39.9468 25.1532 39.4017 26.0448C38.7286 27.1441 37.8788 27.524 36.5781 27.3163C36.4418 27.2944 36.3005 27.3129 36.1608 27.3129C35.7317 27.5308 36.2517 28.1674 35.7115 28.3362C35.6577 28.3126 35.587 28.2839 35.582 28.2383C35.4406 26.7895 34.3082 26.6865 33.238 26.499C33.1286 26.4805 33.0159 26.4737 32.9082 26.4568C32.6911 26.4146 32.5397 26.4535 32.4724 26.7101C32.4219 26.9043 32.4202 27.1897 32.0803 27.1373C31.8868 26.6476 31.5486 26.57 31.0892 26.7625C30.3724 27.063 29.6219 27.2674 28.8664 27.4447C28.6712 27.4869 28.4743 27.5527 28.2757 27.4565C28.2454 27.4109 28.2202 27.3332 28.1832 27.3265C26.7058 27.0732 25.9688 26.0887 25.9519 24.6956C25.9351 23.2874 26.6604 22.1881 27.9527 21.5363C28.2505 21.3877 28.5736 21.2881 28.8832 21.1648Z" fill="#262222"/>
<path d="M28.2758 27.4564C28.4441 27.4041 28.6124 27.3534 28.7806 27.3011C29.065 27.6692 28.9657 28.1031 28.964 28.5101C28.9607 29.1332 29.0633 29.7292 29.2938 30.3051C29.6169 31.1105 30.0712 31.4769 30.5979 31.3503C31.2155 31.2034 31.7657 30.479 31.7304 29.7934C31.6933 29.091 31.7674 28.4037 31.8869 27.7165C31.9239 27.4986 31.9239 27.2656 32.1376 27.1238C32.3496 26.9279 32.2486 26.6594 32.2974 26.4264C32.3765 26.0532 32.5566 26.0481 32.7938 26.3031C33.1825 26.992 33.0193 27.7266 32.9251 28.4375C32.8376 29.091 32.8359 29.7259 33.0244 30.354C33.2263 31.0261 33.8775 31.5225 34.4395 31.4567C35.1429 31.3756 35.5181 30.8825 35.582 30.0298C35.6258 29.4574 35.4138 28.8461 35.8008 28.3176C35.8075 28.0255 35.8008 27.7333 35.8227 27.4429C35.8412 27.193 35.9455 27.0849 36.1609 27.3129C36.3106 28.2568 36.3291 29.2092 36.314 30.1615C36.2955 31.3199 36.0683 31.661 35.0385 32.0713C34.1787 32.4141 33.4619 32.2587 32.7888 31.5664C32.634 31.4077 32.5111 31.2169 32.358 31.021C32.2217 31.1477 32.0837 31.2794 31.9441 31.4094C30.6047 32.6556 29.2821 32.3702 28.6039 30.6765C28.1866 29.6397 28.1496 28.5557 28.2758 27.4564Z" fill="#060909"/>
<path d="M36.1441 21.5717C36.9384 22.0816 37.7797 22.524 38.441 23.2231C39.3177 24.1518 39.4742 25.0029 38.9138 25.8539C38.2677 26.8367 37.4246 27.1035 36.2333 26.6948C35.3398 26.3875 34.5018 25.935 33.5562 25.7627C32.523 25.5753 31.5689 25.8472 30.6081 26.1579C30.0259 26.3453 29.4454 26.553 28.8497 26.6796C27.4177 26.987 26.2382 25.8505 26.4805 24.3899C26.7144 22.985 27.5473 22.0934 28.9187 21.7101C29.3629 22.3771 30.0242 22.7402 30.7764 22.8398C32.7131 23.0981 34.5977 23.0272 36.1441 21.5717Z" fill="#FED29C"/>
<path d="M50.4603 12.9295C50.4334 15.4675 49.4154 17.4228 47.3827 18.7551C44.6029 20.5771 41.5959 20.9131 38.5166 19.6433C34.0222 17.7893 32.6912 12.3672 35.7301 8.54256C38.9474 4.49164 45.5452 4.18938 48.712 7.96338C49.9286 9.41387 50.3863 11.1531 50.4603 12.9295Z" fill="white"/>
<path d="M21.5015 6.21571C25.5601 6.2174 28.5401 8.41425 29.2553 11.8336C30.1387 16.0635 27.9563 19.7025 23.7849 20.8608C21.0791 21.6122 18.4508 21.4383 16.1152 19.7362C13.9614 18.1675 13.0325 15.9453 13.1957 13.3145C13.3876 10.2092 15.1005 8.14407 17.8854 6.93167C19.07 6.41665 20.3253 6.14479 21.5015 6.21571Z" fill="white"/>
<path d="M35.8008 28.3193C35.8025 28.9356 35.816 29.552 35.8042 30.1683C35.7874 31.1088 35.2556 31.683 34.3436 31.7758C33.7648 31.8349 32.8864 31.092 32.735 30.4064C32.4741 29.2311 32.7989 28.0643 32.7871 26.8924C32.7854 26.6966 32.7922 26.5007 32.7939 26.3048C33.7816 26.1089 34.6196 26.5919 35.4424 26.9853C35.9388 27.2217 35.5063 27.9123 35.8008 28.3193Z" fill="#FEFEFE"/>
<path d="M32.1376 27.1255C32.0972 28.0187 32.0332 28.9103 32.0265 29.8036C32.0198 30.5972 31.3501 31.5428 30.5743 31.6441C29.6977 31.759 29.378 31.0852 29.0902 30.4351C28.6443 29.427 28.6998 28.3649 28.7823 27.3011C29.8727 26.9549 30.9614 26.6088 32.1376 26.2356C32.1376 26.5885 32.1376 26.857 32.1376 27.1255Z" fill="#FEFEFE"/>
<path d="M35.6307 13.3432C35.6677 11.8134 36.7733 10.7074 38.212 10.758C39.5968 10.807 40.5745 11.9958 40.5408 13.5915C40.5088 15.1315 39.4269 16.2155 37.9646 16.1733C36.5882 16.1328 35.592 14.9255 35.6307 13.3432Z" fill="#020202"/>
<path d="M19.6943 14.1622C19.6859 15.7241 18.6477 16.8437 17.2039 16.847C15.8073 16.8504 14.6833 15.6616 14.6681 14.1656C14.653 12.634 15.8022 11.4132 17.2443 11.4317C18.6695 11.4503 19.7027 12.6019 19.6943 14.1622Z" fill="#020202"/>
<path d="M38.6445 14.071C38.6041 13.654 38.8329 13.3618 39.2368 13.372C39.5918 13.3804 39.8224 13.6911 39.8123 14.0626C39.8005 14.4459 39.6272 14.7988 39.1897 14.7802C38.8161 14.7667 38.6243 14.4831 38.6445 14.071Z" fill="#EEEDEC"/>
<path d="M18.3479 15.481C17.9676 15.4151 17.7556 15.1821 17.7421 14.8055C17.7287 14.4003 17.9121 14.0693 18.3378 14.044C18.7366 14.022 18.9268 14.3597 18.952 14.7008C18.9806 15.0977 18.7551 15.378 18.3479 15.481Z" fill="#EDECEC"/>
</svg>
