<svg width="21" height="20" viewBox="0 0 21 20" fill="none" xmlns="http://www.w3.org/2000/svg">
<path fill-rule="evenodd" clip-rule="evenodd" d="M6.49933 0.0633122C7.56059 0.0157874 7.89988 0.00390625 10.5984 0.00390625C13.2969 0.00390625 13.6362 0.0157874 14.7014 0.0593518C15.7627 0.106877 16.4847 0.277174 17.1159 0.522718C17.7669 0.780144 18.3232 1.12074 18.8755 1.67519C19.4278 2.22965 19.7711 2.7841 20.0235 3.44153C20.2682 4.07915 20.4378 4.80391 20.4851 5.86529C20.5325 6.93064 20.5443 7.26727 20.5443 9.98014C20.5443 12.693 20.5325 13.0296 20.4851 14.095C20.4378 15.1603 20.2682 15.8851 20.0235 16.5188C19.7671 17.1722 19.4278 17.7306 18.8755 18.2851C18.3232 18.8396 17.7708 19.1841 17.1159 19.4376C16.4807 19.6831 15.7588 19.8534 14.7014 19.9009C13.6402 19.9485 13.3048 19.9603 10.6024 19.9603C7.89988 19.9603 7.56454 19.9485 6.50327 19.9009C5.44201 19.8534 4.72003 19.6831 4.0888 19.4376C3.43784 19.1801 2.88156 18.8396 2.32923 18.2851C1.7769 17.7306 1.43366 17.1762 1.18117 16.5188C0.936566 15.8811 0.766921 15.1564 0.719579 14.095C0.672236 13.0296 0.6604 12.6891 0.6604 9.98014C0.6604 7.27123 0.672236 6.93064 0.719579 5.86925C0.766921 4.80391 0.936566 4.07915 1.18117 3.44549C1.43761 2.79203 1.7769 2.23361 2.32923 1.67915C2.88156 1.1247 3.43389 0.780144 4.0888 0.526679C4.72003 0.281134 5.44201 0.110837 6.49933 0.0633122ZM14.6136 1.86116C13.5641 1.81364 13.2525 1.80176 10.5973 1.80176C7.94219 1.80176 7.63052 1.80968 6.58109 1.86116C5.61057 1.90473 5.08585 2.07106 4.73473 2.20572C4.26919 2.38394 3.93779 2.60176 3.59061 2.95027C3.24343 3.29879 3.03039 3.63146 2.84891 4.09879C2.71083 4.45126 2.54908 4.978 2.50568 5.95225C2.45834 7.00572 2.4465 7.31859 2.4465 9.98394C2.4465 12.6493 2.45834 12.9622 2.50568 14.0156C2.54908 14.9899 2.71477 15.5166 2.84891 15.8691C3.02645 16.3364 3.24343 16.6691 3.59061 17.0176C3.93779 17.3661 4.26919 17.58 4.73473 17.7622C5.08585 17.9008 5.61057 18.0631 6.58109 18.1067C7.63052 18.1542 7.94219 18.1661 10.5973 18.1661C13.2525 18.1661 13.5641 18.1542 14.6136 18.1067C15.5841 18.0631 16.1088 17.8968 16.4599 17.7622C16.9255 17.5839 17.2569 17.3661 17.604 17.0176C17.9512 16.6691 18.1643 16.3364 18.3457 15.8691C18.4838 15.5166 18.6456 14.9899 18.689 14.0156C18.7363 12.9622 18.7482 12.6493 18.7482 9.98394C18.7482 7.31859 18.7363 7.00572 18.689 5.95225C18.6456 4.978 18.4799 4.45126 18.3457 4.09879C18.1682 3.63146 17.9512 3.29879 17.604 2.95027C17.2569 2.60176 16.9255 2.3879 16.4599 2.20572C16.1088 2.0671 15.5841 1.90473 14.6136 1.86116Z" fill="#b2b2b2"/>
<path fill-rule="evenodd" clip-rule="evenodd" d="M5.49634 9.98022C5.49634 7.14854 7.78457 4.85547 10.6015 4.85547C13.4183 4.85547 15.7066 7.1525 15.7066 9.98022C15.7066 12.8079 13.4183 15.105 10.6015 15.105C7.78457 15.105 5.49634 12.8119 5.49634 9.98022ZM7.28604 9.98005C7.28604 11.8177 8.76944 13.3068 10.6 13.3068C12.4306 13.3068 13.914 11.8177 13.914 9.98005C13.914 8.14243 12.4306 6.65332 10.6 6.65332C8.76944 6.65332 7.28604 8.14243 7.28604 9.98005Z" fill="#b2b2b2"/>
<path d="M15.9026 5.84911C16.5607 5.84911 17.0941 5.31363 17.0941 4.65307C17.0941 3.99252 16.5607 3.45703 15.9026 3.45703C15.2446 3.45703 14.7112 3.99252 14.7112 4.65307C14.7112 5.31363 15.2446 5.84911 15.9026 5.84911Z" fill="#b2b2b2"/>
</svg>
