<svg width="68" height="70" viewBox="0 0 68 70" fill="none" xmlns="http://www.w3.org/2000/svg">
<path d="M67.8408 15.9709C67.8659 16.0637 67.8788 16.1593 67.879 16.2554V31.1893C67.879 31.381 67.8282 31.5692 67.7317 31.7351C67.6352 31.901 67.4965 32.0385 67.3295 32.1339L54.7404 39.3504V53.6541C54.7404 54.0434 54.5326 54.4027 54.1936 54.5987L27.915 69.6605C27.8548 69.6945 27.7892 69.7163 27.7236 69.7395C27.699 69.7476 27.6757 69.7626 27.6497 69.7694C27.466 69.8176 27.273 69.8176 27.0893 69.7694C27.0592 69.7612 27.0318 69.7449 27.0031 69.734C26.943 69.7122 26.8801 69.6932 26.8227 69.6605L0.54952 54.5987C0.382614 54.5032 0.243933 54.3656 0.147452 54.1998C0.0509716 54.034 0.000101729 53.8457 -3.05176e-05 53.6541L-3.05176e-05 8.85242C-3.05176e-05 8.75442 0.0136399 8.65914 0.0382466 8.56659C0.0464489 8.53528 0.0655875 8.5067 0.0765238 8.4754C0.0970294 8.41823 0.116168 8.3597 0.146243 8.30662C0.166749 8.27123 0.196823 8.24265 0.22143 8.20998C0.252872 8.16643 0.28158 8.12151 0.31849 8.0834C0.349932 8.0521 0.390943 8.02896 0.426486 8.00174C0.466131 7.96907 0.501674 7.93368 0.546786 7.90782H0.548153L13.6854 0.376907C13.8518 0.281604 14.0403 0.231445 14.2322 0.231445C14.4242 0.231445 14.6127 0.281604 14.7791 0.376907L27.9163 7.90782H27.9191C27.9628 7.93504 27.9997 7.96907 28.0394 8.00038C28.0749 8.0276 28.1145 8.0521 28.146 8.08204C28.1843 8.12151 28.2116 8.16643 28.2444 8.20998C28.2676 8.24265 28.2991 8.27123 28.3182 8.30662C28.3497 8.36107 28.3674 8.41823 28.3893 8.4754C28.4003 8.5067 28.4194 8.53528 28.4276 8.56795C28.4528 8.6607 28.4656 8.75634 28.4659 8.85242V36.8351L39.4131 30.5591V16.254C39.4131 16.1588 39.4268 16.0621 39.4514 15.9709C39.461 15.9383 39.4788 15.9097 39.4897 15.8784C39.5116 15.8212 39.5307 15.7627 39.5608 15.7096C39.5813 15.6742 39.6114 15.6456 39.6346 15.613C39.6674 15.5694 39.6947 15.5245 39.733 15.4864C39.7645 15.4551 39.8041 15.4319 39.8397 15.4047C39.8807 15.372 39.9162 15.3367 39.96 15.3108H39.9613L53.0999 7.77988C53.2662 7.68444 53.4548 7.63421 53.6468 7.63421C53.8387 7.63421 54.0273 7.68444 54.1936 7.77988L67.3308 15.3108C67.3773 15.338 67.4129 15.372 67.4539 15.4033C67.4881 15.4306 67.5277 15.4551 67.5591 15.485C67.5974 15.5245 67.6248 15.5694 67.6576 15.613C67.6822 15.6456 67.7123 15.6742 67.7314 15.7096C67.7628 15.7627 67.7806 15.8212 67.8025 15.8784C67.8148 15.9097 67.8326 15.9383 67.8408 15.9709ZM65.689 30.5591V18.1405L61.0917 20.7756L54.7404 24.4165V36.8351L65.6904 30.5591H65.689ZM52.5518 53.0239V40.5971L46.3044 44.1496L28.4645 54.287V66.8308L52.5518 53.0239ZM2.18997 10.7375V53.0239L26.2745 66.8294V54.2883L13.6923 47.1984L13.6882 47.1957L13.6827 47.193C13.6403 47.1685 13.6048 47.1331 13.5651 47.1032C13.5309 47.0759 13.4913 47.0542 13.4612 47.0242L13.4585 47.0201C13.4229 46.9861 13.3983 46.9439 13.3683 46.9058C13.3409 46.869 13.3081 46.8377 13.2862 46.7996L13.2849 46.7955C13.2603 46.7547 13.2452 46.7057 13.2275 46.6594C13.2097 46.6186 13.1864 46.5805 13.1755 46.5369V46.5356C13.1618 46.4839 13.1591 46.4294 13.1536 46.3763C13.1482 46.3355 13.1372 46.2947 13.1372 46.2538V17.0135L6.78733 13.3712L2.18997 10.7389V10.7375ZM14.2336 2.57915L3.2877 8.85242L14.2309 15.1257L25.1754 8.85106L14.2309 2.57915H14.2336ZM19.926 41.7296L26.2759 38.09V10.7375L21.6785 13.3726L15.3272 17.0135V44.366L19.926 41.7296ZM53.6468 9.98212L42.7022 16.2554L53.6468 22.5287L64.5899 16.254L53.6468 9.98212ZM52.5518 24.4165L46.2005 20.7756L41.6031 18.1405V30.5591L47.953 34.1987L52.5518 36.8351V24.4165ZM27.3681 52.4019L43.4213 43.2771L51.4458 38.7175L40.5095 32.4483L27.9177 39.6662L16.4414 46.2443L27.3681 52.4019Z" fill="#FF2D20"/>
</svg>
