<svg width="192" height="34" viewBox="0 0 192 34" fill="none" xmlns="http://www.w3.org/2000/svg">
<path d="M189 15.91C188.58 15.75 146.87 0 95.78 0C44.85 0 3 15.75 2.57 15.91L0 16.89L2.57 17.89C2.99 18.05 45.57 33.79 95.78 33.79C145.68 33.79 187.24 18.54 188.99 17.89L191.56 16.89L189 15.91ZM184.78 17.13C156.047 26.5628 126.021 31.4681 95.78 31.67C65.5388 31.4681 35.5131 26.5628 6.78 17.13L6.07 16.89L6.78 16.65C35.5118 7.21053 65.538 2.30174 95.78 2.1C126.022 2.30288 156.048 7.21163 184.78 16.65L185.48 16.89L184.78 17.13Z" fill="white"/>
<path d="M117.55 13.1C116.427 12.6055 115.206 12.373 113.98 12.42C113.74 12.42 113.5 12.42 113.27 12.42C111.735 12.4525 110.245 12.9512 109 13.85C108.534 14.1869 108.149 14.6228 107.872 15.1264C107.595 15.63 107.432 16.1888 107.397 16.7626C107.362 17.3363 107.454 17.9108 107.667 18.4446C107.88 18.9785 108.209 19.4584 108.63 19.85C109.292 20.4921 110.108 20.9535 111 21.19C112.508 21.6537 114.105 21.7565 115.66 21.49C116.971 21.3113 118.196 20.7355 119.17 19.84C119.74 19.2697 120.124 18.5407 120.272 17.7484C120.42 16.9561 120.325 16.1375 120 15.4C119.5 14.3536 118.626 13.5328 117.55 13.1ZM116.55 19.1C115.719 19.5509 114.785 19.7751 113.84 19.75C112.912 19.7774 111.994 19.5565 111.18 19.11C110.781 18.9065 110.446 18.5966 110.211 18.2145C109.977 17.8325 109.853 17.3931 109.853 16.945C109.853 16.4969 109.977 16.0575 110.211 15.6755C110.446 15.2934 110.781 14.9835 111.18 14.78C111.82 14.4197 112.536 14.2142 113.27 14.18C114.387 14.044 115.519 14.257 116.51 14.79C116.928 14.9879 117.281 15.301 117.527 15.6925C117.773 16.0839 117.903 16.5375 117.9 17C117.902 17.4458 117.78 17.8834 117.547 18.2634C117.314 18.6433 116.979 18.9504 116.58 19.15L116.55 19.1Z" fill="white"/>
<path d="M54.5 18.71C53.4751 19.2363 52.3642 19.5749 51.22 19.71C49.9088 19.9197 48.565 19.6986 47.39 19.08C46.99 18.8716 46.6568 18.5546 46.4286 18.1655C46.2004 17.7764 46.0865 17.3309 46.1 16.88C46.1051 16.4475 46.2315 16.0251 46.4649 15.6609C46.6982 15.2967 47.0292 15.0053 47.42 14.82C47.9812 14.5138 48.5954 14.317 49.23 14.24C50.9443 14.0117 52.6875 14.3081 54.23 15.09L54.84 15.39C55.09 14.81 55.31 14.27 55.55 13.7L55.3 13.55C53.1422 12.4495 50.6797 12.0977 48.3 12.55C47.155 12.722 46.0718 13.1794 45.15 13.88C44.7089 14.238 44.3492 14.6859 44.0947 15.1939C43.8402 15.7018 43.6968 16.2581 43.6741 16.8258C43.6514 17.3934 43.7499 17.9594 43.963 18.486C44.1761 19.0127 44.4989 19.4879 44.91 19.88C45.5834 20.5071 46.3955 20.9663 47.28 21.22C49.999 21.9863 52.9083 21.6821 55.41 20.37L55.64 20.23C55.39 19.68 55.15 19.13 54.9 18.57L54.5 18.71Z" fill="white"/>
<path d="M105.59 18.71C104.565 19.2363 103.454 19.5749 102.31 19.71C100.999 19.9197 99.655 19.6986 98.48 19.08C98.0784 18.8735 97.7439 18.5569 97.5155 18.1674C97.287 17.7778 97.1742 17.3313 97.19 16.88C97.1951 16.4475 97.3215 16.0251 97.5549 15.6609C97.7882 15.2967 98.1192 15.0053 98.51 14.82C99.0712 14.5138 99.6854 14.317 100.32 14.24C102.034 14.0117 103.777 14.3081 105.32 15.09L105.93 15.39L106.64 13.7L106.39 13.55C104.232 12.4495 101.77 12.0977 99.39 12.55C98.245 12.722 97.1618 13.1794 96.24 13.88C95.7989 14.238 95.4392 14.6859 95.1847 15.1939C94.9302 15.7018 94.7868 16.2581 94.7641 16.8258C94.7414 17.3934 94.8399 17.9594 95.053 18.486C95.2661 19.0127 95.5889 19.4879 96 19.88C96.6553 20.4905 97.4423 20.9422 98.3 21.2C101.019 21.9663 103.928 21.6621 106.43 20.35L106.66 20.21C106.41 19.66 106.17 19.11 105.92 18.55L105.59 18.71Z" fill="white"/>
<path d="M75 13.29C75 12.79 74.39 12.38 73.65 12.38H70.65V14.13H72.59V19.64H70.46V21.4H77.2V19.64H75V13.29Z" fill="white"/>
<path d="M81.08 9.58H78.66V21.4H81.08V9.58Z" fill="white"/>
<path d="M85.26 9.58H82.84V21.4H85.26V9.58Z" fill="white"/>
<path d="M73.61 11.48C74.0107 11.5228 74.4122 11.4078 74.7295 11.1595C75.0469 10.9113 75.2551 10.5492 75.31 10.15C75.2212 9.76703 75.0053 9.42544 74.6975 9.18086C74.3897 8.93629 74.0081 8.80316 73.615 8.80316C73.2219 8.80316 72.8403 8.93629 72.5325 9.18086C72.2247 9.42544 72.0088 9.76703 71.92 10.15C71.9749 10.5473 72.1817 10.9078 72.4968 11.1558C72.812 11.4038 73.211 11.52 73.61 11.48Z" fill="white"/>
<path d="M91.6 13.29C91.6 12.79 91 12.38 90.26 12.38H87.26V14.13H89.2V19.64H87V21.4H93.74V19.64H91.6V13.29Z" fill="white"/>
<path d="M90.18 11.48C90.5807 11.5228 90.9822 11.4078 91.2995 11.1595C91.6169 10.9113 91.8251 10.5492 91.88 10.15C91.787 9.76931 91.5689 9.43086 91.2607 9.18886C90.9524 8.94687 90.5719 8.81533 90.18 8.81533C89.7881 8.81533 89.4076 8.94687 89.0993 9.18886C88.7911 9.43086 88.573 9.76931 88.48 10.15C88.5349 10.5492 88.7431 10.9113 89.0605 11.1595C89.3778 11.4078 89.7794 11.5228 90.18 11.48Z" fill="white"/>
<path d="M67.43 13.34C66.4305 12.6249 65.2171 12.2722 63.99 12.34H63.75C63.0632 12.3431 62.3868 12.5076 61.7754 12.8203C61.1639 13.1329 60.6345 13.585 60.23 14.14C59.8296 14.7461 59.5543 15.4261 59.42 16.14V9.56H57V21.4H59.42C59.42 20.49 59.42 19.58 59.49 18.66C59.5271 17.7374 59.8368 16.8466 60.38 16.1C60.7135 15.6028 61.1441 15.1782 61.6459 14.8517C62.1477 14.5251 62.7103 14.3035 63.3 14.2C63.9425 14.1095 64.5955 14.2654 65.1278 14.6364C65.6601 15.0073 66.0324 15.5659 66.17 16.2C66.3198 16.8186 66.3904 17.4536 66.38 18.09V21.4H68.8V16.45C68.8196 15.862 68.7067 15.2772 68.4695 14.7388C68.2324 14.2004 67.8771 13.7224 67.43 13.34Z" fill="white"/>
<path d="M132.07 9.58V14.69C131.07 12.95 129.23 12.39 127.3 12.39C126.458 12.3854 125.622 12.5137 124.82 12.77C123.652 13.0893 122.645 13.835 122 14.86C121.707 15.3528 121.518 15.9 121.443 16.4683C121.368 17.0366 121.41 17.6142 121.565 18.166C121.72 18.7177 121.986 19.2322 122.346 19.6781C122.706 20.1241 123.153 20.4921 123.66 20.76C125.023 21.4972 126.584 21.7843 128.12 21.58C128.488 21.536 128.852 21.4659 129.21 21.37C130.308 21.1169 131.3 20.53 132.05 19.69V21.36H134.5V9.58H132.05H132.07ZM128.07 19.84C127.137 19.8833 126.209 19.6798 125.38 19.25C124.771 18.9416 124.302 18.4122 124.07 17.77C123.895 17.2442 123.906 16.6744 124.101 16.1557C124.295 15.637 124.662 15.2008 125.14 14.92C125.759 14.53 126.461 14.2934 127.19 14.23C128.413 14.0406 129.663 14.2585 130.75 14.85C131.133 15.0423 131.457 15.3331 131.69 15.6924C131.923 16.0517 132.056 16.4666 132.075 16.8944C132.095 17.3221 132 17.7473 131.8 18.1262C131.601 18.5051 131.304 18.8239 130.94 19.05C130.083 19.6006 129.078 19.8762 128.06 19.84H128.07Z" fill="white"/>
<path d="M148 17.05C148.014 16.2472 147.804 15.4564 147.392 14.7672C146.98 14.0779 146.384 13.5177 145.67 13.15C145.266 12.9327 144.836 12.768 144.39 12.66C142.622 12.2204 140.764 12.3002 139.04 12.89C138.149 13.1815 137.353 13.7104 136.74 14.42C136.075 15.1994 135.734 16.2045 135.788 17.2279C135.842 18.2513 136.286 19.2149 137.03 19.92C137.544 20.3974 138.149 20.7649 138.81 21C140.13 21.477 141.534 21.6795 142.936 21.5953C144.337 21.511 145.706 21.1417 146.96 20.51L147.15 20.41H147.21C147.42 20.31 147.59 20.21 147.59 20.21L146.76 18.63L146.5 18.77H146.45C144.824 19.7189 142.918 20.0724 141.06 19.77C140.272 19.6853 139.527 19.3686 138.92 18.86C138.695 18.6767 138.51 18.4488 138.378 18.1907C138.245 17.9325 138.168 17.6497 138.15 17.36H148C148 17.36 148 17.27 148 17.05ZM138.38 16C138.408 15.8795 138.448 15.7622 138.5 15.65C138.873 15.0547 139.448 14.6143 140.12 14.41C141.359 13.9938 142.701 13.9938 143.94 14.41C144.286 14.5036 144.606 14.6734 144.878 14.907C145.15 15.1406 145.366 15.4321 145.51 15.76C145.543 15.8471 145.567 15.9377 145.58 16.03L138.38 16Z" fill="white"/>
</svg>
