<svg width="90" height="60" viewBox="0 0 90 60" fill="none" xmlns="http://www.w3.org/2000/svg">
<path d="M88.0203 0.00130874C86.6317 0.0461323 87.0708 0.447779 84.0705 1.18896C81.0407 1.93754 77.3398 1.70778 74.0772 3.08178C64.3377 7.18296 62.3836 21.1993 53.5296 26.2202C46.9114 29.9734 40.2341 30.2727 34.231 32.1617C30.2858 33.4037 25.9701 35.9508 22.3957 39.0437C19.6214 41.4447 19.549 43.5564 16.65 46.5684C13.5495 49.7897 4.3264 46.6227 0.146362 51.5533C1.49272 52.9202 2.08329 53.3032 4.73663 52.9485C4.18754 53.9939 0.948904 54.8748 1.58271 56.413C2.24991 58.0312 10.0792 59.1281 17.1966 54.8141C20.5112 52.8048 23.1515 49.9086 28.3134 49.2175C34.9935 48.3235 42.6892 49.7907 50.4225 50.9106C49.2758 54.3433 46.9736 56.6261 45.1295 59.36C44.5582 59.9777 46.2765 60.0468 48.2366 59.6738C51.7625 58.7985 54.3033 58.0933 56.9644 56.5382C60.2336 54.6274 60.7293 49.729 64.7402 48.6687C66.9749 52.1177 73.0536 52.9322 76.8251 50.1737C73.5155 49.2331 72.6008 42.1601 73.718 39.0437C74.7761 36.0931 75.8219 31.3742 76.8877 27.4742C78.0319 23.2862 78.4538 18.0073 79.8384 15.8738C81.922 12.6641 84.2238 11.5619 86.2222 9.75201C88.221 7.94178 90.0504 6.18025 89.9903 2.03849C89.9709 0.704367 89.2837 -0.0389266 88.0203 0.00130874Z" fill="#002B64"/>
</svg>
