<svg width="102" height="66" viewBox="0 0 102 66" fill="none" xmlns="http://www.w3.org/2000/svg">
<g clip-path="url(#clip0)">
<path d="M27.5629 16.7356C34.6981 16.7356 41.8377 16.7356 49.0031 16.7356C49.0031 17.2914 49.0031 17.8274 49.0031 18.4186C48.1989 18.4381 47.3968 18.4249 46.595 18.4273C45.7746 18.4297 44.9541 18.4277 44.1333 18.4277C43.326 18.4277 42.5186 18.4277 41.7113 18.4277C40.8909 18.4277 40.0704 18.4277 39.2496 18.4277C38.4423 18.4277 37.635 18.4277 36.8276 18.4277C36.0203 18.4277 35.213 18.4277 34.4056 18.4277C33.5852 18.4277 32.7648 18.4277 31.9439 18.4277C31.1398 18.4277 30.3356 18.4277 29.5045 18.4277C29.5045 22.7071 29.5045 26.9468 29.5045 31.2301C35.6154 31.2301 41.7093 31.2301 47.8282 31.2301C47.8282 31.8082 47.8282 32.3426 47.8282 32.925C41.7212 32.925 35.6282 32.925 29.5065 32.925C29.5065 37.6355 29.5065 42.2987 29.5065 47.0075C36.0851 47.0075 42.6434 47.0075 49.2248 47.0075C49.2248 47.5896 49.2248 48.1255 49.2248 48.6834C41.993 48.6834 34.7859 48.6834 27.5783 48.683C27.4913 48.406 27.4715 17.1846 27.5629 16.7356Z" fill="#EF3124"/>
<path d="M62.1592 32.2646C58.4361 27.1004 54.7241 21.9521 50.9814 16.7609C51.1189 16.7403 51.2023 16.7168 51.2862 16.7164C51.8154 16.7128 52.3454 16.7303 52.8738 16.7081C53.146 16.6969 53.3009 16.7991 53.4555 17.0144C56.272 20.9378 59.0968 24.8552 61.9197 28.7738C62.3909 29.4278 62.8625 30.0814 63.3507 30.7584C67.2269 25.5485 71.0279 20.3216 74.9568 15.1924C78.8814 10.0687 82.9339 5.04318 86.965 -0.000610352C83.2879 5.39122 79.5688 10.7533 75.8544 16.1181C72.134 21.4912 68.4112 26.8628 64.6702 32.2634C68.6254 37.7164 72.5774 43.1646 76.5592 48.6546C76.4316 48.6765 76.3498 48.7027 76.2679 48.7031C75.7121 48.7067 75.1559 48.6896 74.6009 48.7114C74.3156 48.7226 74.1491 48.6169 73.9854 48.39C71.919 45.5246 69.8423 42.666 67.7684 39.8062C66.4013 37.921 65.0337 36.0358 63.6662 34.151C63.5812 34.0338 63.4934 33.9186 63.3754 33.76C63.2757 33.8876 63.1879 33.9932 63.1072 34.1041C59.6562 38.8424 56.2028 43.579 52.7622 48.3245C52.5512 48.6157 52.3323 48.7293 51.9799 48.7126C51.4026 48.6852 50.8229 48.7051 50.1471 48.7051C52.1861 45.9049 54.1837 43.179 56.1774 40.4503C58.1667 37.7275 60.1568 35.0052 62.1592 32.2646Z" fill="#EF3124"/>
<path d="M36.0311 66.0001C35.919 65.8535 35.8062 65.7077 35.6949 65.5607C31.5149 60.0119 27.3189 54.4755 23.1651 48.9072C21.8842 47.1905 20.7157 45.3899 19.5 43.6246C13.9921 35.6261 8.48544 27.6263 2.97799 19.6278C2.89853 19.5126 2.81152 19.4021 2.68915 19.2988C2.61207 24.1944 2.60492 29.0821 2.59419 33.9693C2.58346 38.8637 2.57075 43.7581 2.55883 48.6792C1.88738 48.6792 1.26163 48.6792 0.61084 48.6792C0.61084 38.0314 0.61084 27.3983 0.61084 16.7151C0.819823 16.7151 1.01411 16.7151 1.20879 16.7151C1.71177 16.7151 2.21476 16.7278 2.71736 16.7096C2.95892 16.7008 3.09877 16.7894 3.22988 16.9865C4.49887 18.8912 5.77701 20.7903 7.05276 22.6906C16.6191 36.9368 26.1858 51.1826 35.7525 65.4288C35.8682 65.6012 35.981 65.7756 36.095 65.9489C36.0736 65.9659 36.0521 65.983 36.0311 66.0001Z" fill="#EF3124"/>
<path d="M90.6753 48.6859C89.9828 48.6859 89.3658 48.6859 88.7007 48.6859C88.7007 38.6027 88.7007 28.5394 88.7007 18.4355C84.941 18.4355 81.2293 18.4355 77.4863 18.4355C77.4863 17.8503 77.4863 17.3052 77.4863 16.7374C85.6343 16.7374 93.7675 16.7374 101.957 16.7374C101.992 17.2801 101.973 17.8252 101.968 18.4176C98.1943 18.4176 94.4576 18.4176 90.6753 18.4176C90.6753 28.5279 90.6753 38.5916 90.6753 48.6859Z" fill="#EF3124"/>
</g>
<defs>
<clipPath id="clip0">
<rect width="101.389" height="66" fill="white" transform="translate(0.61084)"/>
</clipPath>
</defs>
</svg>
