<svg width="107" height="65" viewBox="0 0 107 65" fill="none" xmlns="http://www.w3.org/2000/svg">
<g clip-path="url(#clip0)">
<path d="M53.0389 65.024C52.6816 65.0186 52.3321 64.9192 52.0258 64.7361L48.8175 62.8405C48.3351 62.5766 48.5763 62.4806 48.721 62.4326C49.23 62.2702 49.7163 62.0445 50.1684 61.7608C50.2071 61.7433 50.2499 61.7363 50.2922 61.7405C50.3346 61.7447 50.3751 61.76 50.4096 61.7848L52.8701 63.2244C52.9177 63.2518 52.9718 63.2662 53.0268 63.2662C53.0819 63.2662 53.136 63.2518 53.1836 63.2244L62.8325 57.7058C62.8693 57.6773 62.8992 57.6409 62.9201 57.5994C62.9409 57.5579 62.9522 57.5123 62.9531 57.4659V46.3806C62.9494 46.3321 62.9345 46.2852 62.9093 46.2436C62.8842 46.2019 62.8496 46.1667 62.8084 46.1407L53.1595 40.622C53.1185 40.601 53.073 40.59 53.0268 40.59C52.9807 40.59 52.9352 40.601 52.8942 40.622L43.2453 46.1407C43.2041 46.1667 43.1695 46.2019 43.1444 46.2436C43.1192 46.2852 43.1042 46.3321 43.1006 46.3806V57.4419C43.0979 57.4949 43.11 57.5475 43.1356 57.5941C43.1611 57.6407 43.1991 57.6793 43.2453 57.7058L45.8987 59.2174C47.3461 59.9373 48.2145 59.0975 48.2145 58.2577V47.3404C48.2111 47.3037 48.2155 47.2668 48.2273 47.232C48.2391 47.1971 48.2581 47.1651 48.2831 47.138C48.3081 47.1109 48.3385 47.0893 48.3724 47.0745C48.4062 47.0598 48.4428 47.0523 48.4798 47.0524H49.6859C49.7249 47.0487 49.7642 47.0536 49.801 47.0668C49.8378 47.0799 49.8712 47.101 49.8989 47.1285C49.9265 47.156 49.9478 47.1893 49.961 47.2259C49.9742 47.2625 49.9791 47.3016 49.9754 47.3404V58.2577C49.9754 60.1772 48.9381 61.2569 47.129 61.2569C46.5742 61.2569 46.14 61.2569 44.9097 60.6571L42.3769 59.2174C42.0696 59.0382 41.8146 58.7824 41.6369 58.4752C41.4593 58.1681 41.3651 57.8202 41.3638 57.4659V46.4046C41.3627 46.0498 41.4558 45.7009 41.6337 45.3934C41.8116 45.0858 42.068 44.8304 42.3769 44.653L52.0258 39.1104C52.3337 38.9466 52.6776 38.8608 53.0268 38.8608C53.3761 38.8608 53.7199 38.9466 54.0279 39.1104L63.6768 44.629C63.9893 44.8084 64.248 45.0676 64.4261 45.3798C64.6042 45.6919 64.6953 46.0457 64.6899 46.4046V57.4419C64.6911 57.7939 64.6006 58.1402 64.4273 58.4472C64.2539 58.7541 64.0037 59.0112 63.7009 59.1934L54.052 64.7361C53.7434 64.9108 53.394 65.0019 53.0389 65V65.024Z" fill="#679E63"/>
<path d="M56.006 57.3939C51.7846 57.3939 50.8921 55.4744 50.8921 53.8428C50.8919 53.806 50.8995 53.7696 50.9143 53.7359C50.9291 53.7022 50.9509 53.672 50.9781 53.6471C51.0054 53.6223 51.0376 53.6034 51.0726 53.5916C51.1076 53.5799 51.1447 53.5755 51.1816 53.5789H52.4359C52.5023 53.5786 52.5664 53.6031 52.6155 53.6475C52.6646 53.6919 52.6952 53.753 52.7013 53.8188C52.8942 55.0665 53.449 55.7143 56.006 55.7143C58.0322 55.7143 58.9006 55.2344 58.9006 54.1787C58.9006 53.5549 58.6594 53.099 55.4994 52.7871C52.846 52.5471 51.2298 51.9473 51.2298 49.8598C51.2298 47.9402 52.8701 46.7645 55.62 46.7645C58.7077 46.7645 60.2274 47.8443 60.4445 50.1237C60.4504 50.1686 60.4447 50.2142 60.4278 50.2562C60.4109 50.2982 60.3834 50.3352 60.348 50.3636C60.2947 50.4104 60.226 50.436 60.155 50.4356H58.9006C58.8343 50.4359 58.7702 50.4114 58.7211 50.367C58.6719 50.3226 58.6413 50.2614 58.6353 50.1957C58.3217 48.876 57.598 48.4681 55.62 48.4681C53.4008 48.4681 53.1355 49.2359 53.1355 49.8118C53.1355 50.5076 53.449 50.6996 56.4402 51.1075C59.4313 51.5154 60.8063 52.0432 60.8063 54.1067C60.8063 56.1702 59.0695 57.3939 55.9819 57.3939H56.006ZM69.9003 45.7808C69.9003 46.1462 69.7914 46.5034 69.5873 46.8072C69.3832 47.111 69.0931 47.3478 68.7537 47.4877C68.4143 47.6275 68.0409 47.6641 67.6806 47.5928C67.3203 47.5215 66.9893 47.3456 66.7296 47.0872C66.4698 46.8288 66.2929 46.4996 66.2212 46.1412C66.1496 45.7828 66.1863 45.4113 66.3269 45.0737C66.4675 44.7362 66.7056 44.4476 67.011 44.2446C67.3165 44.0416 67.6756 43.9332 68.0429 43.9332C68.5356 43.9332 69.008 44.1279 69.3563 44.4744C69.7047 44.8208 69.9003 45.2908 69.9003 45.7808ZM66.475 45.7808C66.4702 46.0902 66.5581 46.3941 66.7274 46.6537C66.8968 46.9133 67.14 47.1169 67.426 47.2387C67.7121 47.3604 68.0281 47.3947 68.3338 47.3373C68.6395 47.2798 68.9211 47.1332 69.1428 46.9161C69.3645 46.699 69.5163 46.4211 69.5788 46.118C69.6412 45.8148 69.6116 45.5 69.4937 45.2136C69.3758 44.9272 69.1748 44.6822 68.9165 44.5098C68.6582 44.3373 68.3541 44.2452 68.0429 44.2451C67.6312 44.2451 67.236 44.4061 66.9427 44.6934C66.6493 44.9807 66.4813 45.3713 66.475 45.7808ZM67.3434 44.749H68.0671C68.3083 44.749 68.7907 44.749 68.7907 45.3009C68.7989 45.4172 68.7642 45.5324 68.6932 45.6252C68.6222 45.7179 68.5197 45.7817 68.4048 45.8048C68.6701 45.8048 68.6942 46.0207 68.7425 46.2846C68.749 46.4721 68.7814 46.6578 68.839 46.8365H68.4048L68.3324 46.1887C68.3083 46.0687 68.26 45.9967 68.0912 45.9967H67.7535V46.8365H67.3434V44.749ZM67.7294 45.6608H68.0671C68.1071 45.6641 68.1473 45.6591 68.1853 45.6462C68.2232 45.6332 68.258 45.6125 68.2875 45.5854C68.317 45.5584 68.3405 45.5255 68.3566 45.4889C68.3726 45.4523 68.3808 45.4128 68.3806 45.3729C68.3806 45.0849 68.1877 45.0849 68.0671 45.0849H67.7294V45.6608Z" fill="#679E63"/>
<path fill-rule="evenodd" clip-rule="evenodd" d="M23.1998 21.7154C23.1979 21.5001 23.1389 21.2891 23.0288 21.1038C22.9186 20.9184 22.7613 20.7652 22.5726 20.6597L12.3448 14.8051C12.1739 14.7143 11.9838 14.665 11.79 14.6612H11.6694C11.4758 14.6659 11.2859 14.7152 11.1146 14.8051L0.910938 20.6597C0.718694 20.7672 0.559046 20.9242 0.448708 21.1141C0.33837 21.3041 0.2814 21.52 0.283762 21.7394V37.4795C0.285768 37.5899 0.318359 37.6976 0.377944 37.7907C0.437529 37.8839 0.521799 37.9589 0.621472 38.0074C0.713148 38.0601 0.817141 38.0878 0.922999 38.0878C1.02886 38.0878 1.13285 38.0601 1.22453 38.0074L7.30331 34.5523C7.49388 34.4428 7.65215 34.2854 7.76223 34.0959C7.87232 33.9064 7.93034 33.6914 7.93049 33.4725V26.1543C7.92996 25.9414 7.98532 25.732 8.09108 25.5468C8.19685 25.3617 8.34936 25.2072 8.53354 25.0986L11.1387 23.587C11.3218 23.4802 11.5296 23.4223 11.7418 23.419C11.9624 23.4169 12.1793 23.475 12.369 23.587L14.95 25.0746C15.1342 25.1832 15.2867 25.3377 15.3925 25.5228C15.4983 25.708 15.5536 25.9174 15.5531 26.1303V33.4725C15.5556 33.6938 15.6173 33.9104 15.7318 34.1001C15.8462 34.2898 16.0093 34.4459 16.2044 34.5523L22.2349 38.0074C22.3294 38.0646 22.4379 38.0949 22.5485 38.0949C22.6591 38.0949 22.7676 38.0646 22.8621 38.0074C22.9556 37.9537 23.0336 37.8769 23.0886 37.7844C23.1435 37.692 23.1735 37.5869 23.1757 37.4795L23.1998 21.7154ZM72.3366 0.0727401C72.2412 0.0233291 72.1345 -0.000810286 72.0269 0.00264427C71.9194 0.00609883 71.8145 0.0370311 71.7224 0.0924652C71.6303 0.147899 71.5542 0.22597 71.5012 0.319166C71.4482 0.412362 71.4203 0.517548 71.42 0.624604V16.2208C71.4152 16.2966 71.3903 16.3697 71.348 16.4329C71.3056 16.4961 71.2473 16.5471 71.1788 16.5807C71.1157 16.6143 71.0453 16.6319 70.9737 16.6319C70.9022 16.6319 70.8318 16.6143 70.7687 16.5807L68.2118 15.117C68.0276 15.014 67.8199 14.9599 67.6087 14.9599C67.3975 14.9599 67.1898 15.014 67.0057 15.117L56.7296 20.9956C56.5438 21.1023 56.3899 21.2564 56.2839 21.442C56.1779 21.6276 56.1236 21.8379 56.1266 22.0513V33.7845C56.1285 33.9998 56.1875 34.2107 56.2976 34.3961C56.4077 34.5815 56.5651 34.7347 56.7537 34.8402L66.9574 40.7187C67.1444 40.8261 67.3566 40.8827 67.5725 40.8827C67.7885 40.8827 68.0006 40.8261 68.1876 40.7187L78.4154 34.8402C78.6041 34.7347 78.7614 34.5815 78.8716 34.3961C78.9817 34.2107 79.0407 33.9998 79.0426 33.7845V4.51165C79.0383 4.29395 78.9757 4.08134 78.8612 3.89576C78.7467 3.71017 78.5845 3.55833 78.3913 3.45591L72.3366 0.0727401ZM71.3718 29.9214C71.3719 29.974 71.3588 30.0257 71.3335 30.0719C71.3082 30.118 71.2716 30.157 71.227 30.1853L67.7293 32.2008C67.6816 32.2282 67.6276 32.2426 67.5725 32.2426C67.5175 32.2426 67.4634 32.2282 67.4157 32.2008L63.918 30.1853C63.8723 30.1621 63.833 30.1281 63.8035 30.0863C63.7741 30.0445 63.7554 29.9961 63.7492 29.9454V25.8904C63.7528 25.842 63.7678 25.795 63.793 25.7534C63.8181 25.7117 63.8526 25.6765 63.8939 25.6505L67.4157 23.611C67.4634 23.5836 67.5175 23.5692 67.5725 23.5692C67.6276 23.5692 67.6816 23.5836 67.7293 23.611L71.227 25.6265C71.276 25.6518 71.3175 25.6895 71.3471 25.7358C71.3768 25.7822 71.3936 25.8355 71.3959 25.8904L71.3718 29.9214ZM106.373 25.7944C106.562 25.6889 106.719 25.5357 106.829 25.3503C106.939 25.165 106.998 24.954 107 24.7387V21.8834C106.998 21.6681 106.939 21.4571 106.829 21.2717C106.719 21.0864 106.562 20.9332 106.373 20.8276L96.2176 14.9491C96.0306 14.8417 95.8184 14.7851 95.6025 14.7851C95.3865 14.7851 95.1744 14.8417 94.9874 14.9491L84.7596 20.8276C84.5737 20.9343 84.4198 21.0884 84.3138 21.274C84.2078 21.4596 84.1535 21.67 84.1565 21.8834V33.6405C84.1584 33.8558 84.2174 34.0668 84.3276 34.2521C84.4377 34.4375 84.595 34.5907 84.7837 34.6962L94.915 40.4548C95.0991 40.5578 95.3068 40.6119 95.518 40.6119C95.7293 40.6119 95.937 40.5578 96.1211 40.4548L102.272 37.0476C102.367 36.9928 102.446 36.9141 102.501 36.8194C102.556 36.7246 102.585 36.6172 102.585 36.5078C102.585 36.3984 102.556 36.291 102.501 36.1962C102.446 36.1014 102.367 36.0227 102.272 35.9679L91.9962 30.1134C91.9027 30.0597 91.8247 29.9829 91.7697 29.8904C91.7148 29.7979 91.6848 29.6929 91.6826 29.5855V25.9144C91.6823 25.8065 91.7113 25.7005 91.7665 25.6076C91.8217 25.5147 91.901 25.4383 91.9962 25.3865L95.2045 23.539C95.2961 23.4863 95.4001 23.4586 95.506 23.4586C95.6118 23.4586 95.7158 23.4863 95.8075 23.539L99.0157 25.3865C99.1109 25.4383 99.1903 25.5147 99.2455 25.6076C99.3007 25.7005 99.3296 25.8065 99.3293 25.9144V28.7937C99.3265 28.9015 99.353 29.008 99.4059 29.1021C99.4588 29.1962 99.5362 29.2744 99.63 29.3284C99.7238 29.3825 99.8306 29.4103 99.939 29.4091C100.047 29.4079 100.153 29.3777 100.246 29.3215L106.373 25.7944Z" fill="#333333"/>
<path fill-rule="evenodd" clip-rule="evenodd" d="M95.4458 25.2417C95.4825 25.2207 95.5241 25.2096 95.5664 25.2096C95.6088 25.2096 95.6504 25.2207 95.687 25.2417L97.6651 26.3695C97.6995 26.3891 97.7285 26.4169 97.7495 26.4504C97.7706 26.4839 97.783 26.522 97.7857 26.5614V28.8169C97.7871 28.8604 97.7767 28.9034 97.7554 28.9415C97.7342 28.9795 97.703 29.0111 97.6651 29.0328L95.7112 30.1605C95.6745 30.1816 95.6329 30.1927 95.5905 30.1927C95.5482 30.1927 95.5066 30.1816 95.4699 30.1605L93.4919 29.0328C93.4585 29.0082 93.432 28.9753 93.4151 28.9375C93.3982 28.8996 93.3914 28.8581 93.3954 28.8169V26.5614C93.3954 26.5242 93.4041 26.4874 93.4209 26.4541C93.4376 26.4208 93.4619 26.3918 93.4919 26.3695L95.4458 25.2417Z" fill="#679E63"/>
<path fill-rule="evenodd" clip-rule="evenodd" d="M40.2783 15.0203C40.095 14.9151 39.887 14.8596 39.6753 14.8596C39.4636 14.8596 39.2556 14.9151 39.0722 15.0203L28.8686 20.8749C28.6827 20.9816 28.5288 21.1357 28.4228 21.3213C28.3168 21.5069 28.2625 21.7172 28.2655 21.9307V33.5918C28.2625 33.8052 28.3168 34.0156 28.4228 34.2011C28.5288 34.3867 28.6827 34.5408 28.8686 34.6475L39.024 40.4781C39.2073 40.5834 39.4153 40.6388 39.627 40.6388C39.8387 40.6388 40.0467 40.5834 40.2301 40.4781L50.4096 34.6475C50.6 34.5439 50.7587 34.3912 50.8691 34.2054C50.9795 34.0196 51.0374 33.8076 51.0368 33.5918V21.9067C51.0374 21.6908 50.9795 21.4789 50.8691 21.2931C50.7587 21.1073 50.6 20.9545 50.4096 20.8509L40.2783 15.0203Z" fill="url(#paint0_linear)"/>
<path d="M50.458 20.8749L40.2785 15.0204C40.1801 14.966 40.0745 14.9256 39.9649 14.9004L28.5068 34.3596C28.6038 34.4723 28.7177 34.5694 28.8445 34.6475L39.0723 40.4781C39.3581 40.639 39.6958 40.6821 40.0131 40.5981L50.7475 21.0669C50.6604 20.9831 50.5632 20.9106 50.458 20.8509V20.8749Z" fill="url(#paint1_linear)"/>
<path d="M38.7108 12.8608L38.5657 12.9571H38.7592L38.7108 12.8608Z" fill="url(#paint2_linear)"/>
<path d="M50.4578 34.6474C50.6042 34.5652 50.7327 34.455 50.8362 34.3233C50.9397 34.1915 51.016 34.0407 51.0609 33.8796L39.8923 14.8763C39.5949 14.8183 39.2864 14.8695 39.0239 15.0203L28.9167 20.8268L39.8441 40.646C40.0064 40.6204 40.1622 40.5633 40.3024 40.478L50.4578 34.6474Z" fill="url(#paint3_linear)"/>
<path d="M51.4229 34.4559L51.3503 34.3356V34.504L51.4229 34.4559Z" fill="url(#paint4_linear)"/>
<path d="M50.458 34.6475L40.3026 40.4781C40.1623 40.5634 40.0066 40.6205 39.8442 40.646L40.0372 41.006L51.3505 34.5036V34.3356L51.061 33.8557C51.0191 34.0212 50.9441 34.1766 50.8405 34.3126C50.7368 34.4486 50.6068 34.5625 50.458 34.6475Z" fill="url(#paint5_linear)"/>
<path d="M50.458 34.6475L40.3026 40.4781C40.1623 40.5634 40.0066 40.6205 39.8442 40.646L40.0372 41.006L51.3505 34.5036V34.3356L51.061 33.8557C51.0191 34.0212 50.9441 34.1766 50.8405 34.3126C50.7368 34.4486 50.6068 34.5625 50.458 34.6475Z" fill="url(#paint6_linear)"/>
</g>
<defs>
<linearGradient id="paint0_linear" x1="43.8002" y1="19.3633" x2="34.6882" y2="38.045" gradientUnits="userSpaceOnUse">
<stop stop-color="#3F873F"/>
<stop offset="0.3" stop-color="#3F8B3D"/>
<stop offset="0.6" stop-color="#3E9637"/>
<stop offset="0.9" stop-color="#3DA92E"/>
<stop offset="1" stop-color="#3DAE2B"/>
</linearGradient>
<linearGradient id="paint1_linear" x1="38.1316" y1="29.1049" x2="63.7971" y2="10.043" gradientUnits="userSpaceOnUse">
<stop offset="0.1" stop-color="#3F873F"/>
<stop offset="0.4" stop-color="#529F44"/>
<stop offset="0.7" stop-color="#63B649"/>
<stop offset="0.9" stop-color="#6ABF4B"/>
</linearGradient>
<linearGradient id="paint2_linear" x1="27.8994" y1="12.909" x2="51.4571" y2="12.909" gradientUnits="userSpaceOnUse">
<stop offset="0.1" stop-color="#6ABF4B"/>
<stop offset="0.3" stop-color="#63B649"/>
<stop offset="0.6" stop-color="#529F44"/>
<stop offset="0.9" stop-color="#3F873F"/>
</linearGradient>
<linearGradient id="paint3_linear" x1="2573.28" y1="2999.09" x2="4730.12" y2="2999.09" gradientUnits="userSpaceOnUse">
<stop offset="0.1" stop-color="#6ABF4B"/>
<stop offset="0.3" stop-color="#63B649"/>
<stop offset="0.6" stop-color="#529F44"/>
<stop offset="0.9" stop-color="#3F873F"/>
</linearGradient>
<linearGradient id="paint4_linear" x1="59.6656" y1="58.4852" x2="66.7329" y2="58.4852" gradientUnits="userSpaceOnUse">
<stop offset="0.1" stop-color="#6ABF4B"/>
<stop offset="0.3" stop-color="#63B649"/>
<stop offset="0.6" stop-color="#529F44"/>
<stop offset="0.9" stop-color="#3F873F"/>
</linearGradient>
<linearGradient id="paint5_linear" x1="1361.91" y1="1149.29" x2="2482.62" y2="1149.29" gradientUnits="userSpaceOnUse">
<stop offset="0.1" stop-color="#6ABF4B"/>
<stop offset="0.3" stop-color="#63B649"/>
<stop offset="0.6" stop-color="#529F44"/>
<stop offset="0.9" stop-color="#3F873F"/>
</linearGradient>
<linearGradient id="paint6_linear" x1="2646.01" y1="594.435" x2="2342.92" y2="1589.38" gradientUnits="userSpaceOnUse">
<stop stop-color="#3F873F"/>
<stop offset="0.3" stop-color="#3F8B3D"/>
<stop offset="0.6" stop-color="#3E9637"/>
<stop offset="0.9" stop-color="#3DA92E"/>
<stop offset="1" stop-color="#3DAE2B"/>
</linearGradient>
<clipPath id="clip0">
<rect width="106.716" height="65" fill="white" transform="translate(0.283691)"/>
</clipPath>
</defs>
</svg>
