<svg width="80" height="80" viewBox="0 0 80 80" fill="none" xmlns="http://www.w3.org/2000/svg">
<g clip-path="url(#clip0)">
<path d="M66.8988 70.5188H3.62C1.62048 70.5188 0 68.8977 0 66.8988V3.62C0 1.62048 1.62048 0 3.62 0H66.8988C68.8977 0 70.5182 1.62048 70.5182 3.62V66.8988C70.5182 68.8977 68.8977 70.5188 66.8988 70.5188Z" fill="#E7E7E7"/>
<path d="M70.5182 3.61938V66.8994C70.5182 68.8983 68.8983 70.5182 66.8976 70.5182H62.5122C64.5129 70.5182 66.1328 68.8977 66.1328 66.8994V3.61938C66.1328 1.62048 64.5129 0.000610352 62.5122 0.000610352H66.8976C68.8983 0.000610352 70.5182 1.62048 70.5182 3.61938Z" fill="#CECECE"/>
<path d="M70.5182 12.3492H0V3.62C0 1.62048 1.62048 0 3.62 0H66.8988C68.8977 0 70.5182 1.62048 70.5182 3.62V12.3492Z" fill="#64DCFC"/>
<path d="M70.5182 3.61938V12.3499H66.1328V3.61938C66.1328 1.62048 64.5129 0.000610352 62.5122 0.000610352H66.8976C68.8983 0.000610352 70.5182 1.62048 70.5182 3.61938Z" fill="#00D1FC"/>
<path d="M9.71851 23.8324V22.1283C9.71851 21.5497 9.93152 20.9863 10.454 20.6903C10.6493 20.5798 10.8574 20.528 11.071 20.5066C11.6838 20.4449 12.1593 19.9463 12.1593 19.3298V19.2731C12.1593 18.6212 11.6313 18.0933 10.9795 18.0933H10.9136C9.46216 18.1396 7.30396 19.2523 7.30396 22.1283V23.1891L6.151 23.9636C5.58765 24.3414 5.302 25.0293 5.45764 25.719C5.55286 26.142 5.82446 26.5039 6.18396 26.7456L7.30396 27.4976V28.5583C7.30396 31.4349 9.46216 32.5476 10.913 32.594C10.9264 32.5946 10.9392 32.5946 10.9526 32.5946C11.6014 32.5946 12.1379 32.0795 12.1587 31.4258C12.1801 30.7593 11.657 30.2014 10.9905 30.1807C10.9874 30.1801 10.6554 30.1495 10.3496 29.967C10.0786 29.8059 9.71912 29.4843 9.71912 28.559V26.8542C9.71912 26.452 9.51892 26.076 9.18506 25.8521L8.42761 25.3436L9.18506 24.8352C9.51831 24.6106 9.71851 24.2346 9.71851 23.8324Z" fill="#5A5A5A"/>
<path d="M28.7012 23.9636L27.5488 23.1891V22.1283C27.5488 19.2523 25.39 18.1396 23.9392 18.0933H23.8727C23.2214 18.0933 22.6929 18.6212 22.6929 19.2731V19.3298C22.6929 19.9463 23.1683 20.4449 23.7817 20.5066C23.9954 20.528 24.2029 20.5798 24.3982 20.6903C24.9207 20.9863 25.1337 21.5497 25.1337 22.1283V23.8324C25.1337 24.2346 25.3339 24.6106 25.6677 24.8352L26.4246 25.3436L25.6677 25.8521C25.3339 26.076 25.1337 26.452 25.1337 26.8542V28.5583C25.1337 29.4843 24.7736 29.8053 24.5032 29.967C24.1968 30.1489 23.8647 30.1801 23.8617 30.1801C23.1958 30.2014 22.6721 30.7593 22.6941 31.4258C22.7148 32.0789 23.2507 32.5946 23.9001 32.5946C23.913 32.5946 23.9264 32.5946 23.9392 32.594C25.3906 32.5476 27.5488 31.4343 27.5488 28.5583V27.4976L28.6688 26.7456C29.0283 26.5039 29.2993 26.1414 29.3951 25.719C29.5502 25.0293 29.2645 24.3414 28.7012 23.9636Z" fill="#5A5A5A"/>
<path d="M8.40466 6.35681C8.40466 7.64709 7.35913 8.69263 6.06885 8.69263C4.77856 8.69263 3.73242 7.64709 3.73242 6.35681C3.73242 5.06653 4.77856 4.02039 6.06885 4.02039C7.35913 4.02039 8.40466 5.06653 8.40466 6.35681Z" fill="#FF5770"/>
<path d="M17.4269 6.35681C17.4269 7.64709 16.3807 8.69263 15.0905 8.69263C13.8002 8.69263 12.7546 7.64709 12.7546 6.35681C12.7546 5.06653 13.8002 4.02039 15.0905 4.02039C16.3807 4.02039 17.4269 5.06653 17.4269 6.35681Z" fill="#FFD86E"/>
<path d="M26.4489 6.35681C26.4489 7.64709 25.4027 8.69263 24.1124 8.69263C22.8221 8.69263 21.7766 7.64709 21.7766 6.35681C21.7766 5.06653 22.8221 4.02039 24.1124 4.02039C25.4027 4.02039 26.4489 5.06653 26.4489 6.35681Z" fill="#00D3B4"/>
<path d="M8.40393 6.35742C8.40393 7.64709 7.35901 8.69202 6.06934 8.69202C5.44434 8.69202 4.8761 8.44727 4.45801 8.04626C5.72144 8.0188 6.73889 6.98547 6.73889 5.7135C6.73889 5.047 6.46057 4.44763 6.0144 4.02283C6.0321 4.021 6.05164 4.021 6.06934 4.021C7.35901 4.021 8.40393 5.06592 8.40393 6.35742Z" fill="#FF435F"/>
<path d="M17.4263 6.35742C17.4263 7.64709 16.3813 8.69202 15.0905 8.69202C14.4655 8.69202 13.899 8.44727 13.4785 8.04626C14.7444 8.0188 15.7618 6.98547 15.7618 5.7135C15.7618 5.047 15.4829 4.44763 15.0374 4.02283C15.0551 4.021 15.0728 4.021 15.0905 4.021C16.3813 4.021 17.4263 5.06592 17.4263 6.35742Z" fill="#FFB509"/>
<path d="M26.449 6.35742C26.449 7.64709 25.4022 8.69202 24.1125 8.69202C23.4882 8.69202 22.9211 8.44727 22.5012 8.04626C23.7665 8.0188 24.7827 6.98547 24.7827 5.7135C24.7827 5.047 24.5038 4.44763 24.0576 4.02283C24.0753 4.021 24.0948 4.021 24.1125 4.021C25.4022 4.021 26.449 5.06592 26.449 6.35742Z" fill="#00B7A0"/>
<path d="M23.7329 57.2803H10.2216C8.93372 57.2803 7.8894 56.236 7.8894 54.9481V42.948C7.8894 41.6602 8.93372 40.6165 10.2216 40.6165H23.7329C25.0208 40.6165 26.0651 41.6602 26.0651 42.948V54.9481C26.0651 56.236 25.0208 57.2803 23.7329 57.2803Z" fill="#80E0DC"/>
<path d="M26.0651 42.9492V54.9487C26.0651 56.2366 25.0201 57.2797 23.7323 57.2797H20.2673C21.5552 57.2797 22.5989 56.2366 22.5989 54.9487V42.9492C22.5989 41.6608 21.5552 40.6165 20.2673 40.6165H23.7323C25.0201 40.6165 26.0651 41.6608 26.0651 42.9492Z" fill="#00A8B0"/>
<path d="M26.0529 55.1941C25.9625 56.0559 25.4041 56.7767 24.6356 57.099C24.541 57.052 24.4489 56.9928 24.3671 56.9183L16.9769 50.379L9.58862 56.9183C9.505 56.9928 9.41467 57.052 9.31824 57.099C8.55041 56.7767 7.99316 56.0541 7.90283 55.1929C7.92908 55.1636 7.95776 55.1361 7.98706 55.1105L15.1544 48.7653L7.98706 42.4219C7.97729 42.4121 7.96753 42.4042 7.95776 42.3944C8.16101 41.5527 8.82385 40.8875 9.66614 40.683L16.9775 47.1539L24.2883 40.683C25.1306 40.8875 25.7935 41.5509 25.9979 42.3932C25.9888 42.403 25.979 42.4127 25.9674 42.4219L18.8 48.7653L25.9674 55.1105C25.9979 55.1379 26.0266 55.1654 26.0529 55.1941Z" fill="#00A8B0"/>
<path d="M37.4286 42.3566H32.0459C31.3989 42.3566 30.874 41.8317 30.874 41.1847C30.874 40.5371 31.3989 40.0128 32.0459 40.0128H37.4286C38.0762 40.0128 38.6005 40.5371 38.6005 41.1847C38.6005 41.8317 38.0762 42.3566 37.4286 42.3566Z" fill="#5A5A5A"/>
<path d="M63.9111 42.3566H60.5713C59.9243 42.3566 59.3994 41.8317 59.3994 41.1847C59.3994 40.5371 59.9243 40.0128 60.5713 40.0128H63.9111C64.5587 40.0128 65.083 40.5371 65.083 41.1847C65.083 41.8317 64.5587 42.3566 63.9111 42.3566Z" fill="#5A5A5A"/>
<path d="M37.4286 47.6764H32.0459C31.3989 47.6764 30.874 47.1521 30.874 46.5045C30.874 45.8569 31.3989 45.3326 32.0459 45.3326H37.4286C38.0762 45.3326 38.6005 45.8569 38.6005 46.5045C38.6005 47.1521 38.0762 47.6764 37.4286 47.6764Z" fill="#5A5A5A"/>
<path d="M36.297 52.5708H32.0459C31.3989 52.5708 30.874 52.0465 30.874 51.3989C30.874 50.752 31.3989 50.2271 32.0459 50.2271H36.297C36.9446 50.2271 37.4689 50.752 37.4689 51.3989C37.4689 52.0465 36.9446 52.5708 36.297 52.5708Z" fill="#5A5A5A"/>
<path d="M36.0687 57.8912H32.0459C31.3989 57.8912 30.874 57.3663 30.874 56.7194C30.874 56.0718 31.3989 55.5475 32.0459 55.5475H36.0687C36.7163 55.5475 37.2406 56.0718 37.2406 56.7194C37.2406 57.3663 36.7163 57.8912 36.0687 57.8912Z" fill="#5A5A5A"/>
<path d="M36.0686 23.0212H32.5591C31.9121 23.0212 31.3872 22.4969 31.3872 21.8494C31.3872 21.2024 31.9121 20.6775 32.5591 20.6775H36.0686C36.7162 20.6775 37.2405 21.2024 37.2405 21.8494C37.2405 22.4969 36.7162 23.0212 36.0686 23.0212Z" fill="#5A5A5A"/>
<path d="M61.4103 23.0212H39.9985C39.3516 23.0212 38.8267 22.4969 38.8267 21.8494C38.8267 21.2024 39.3516 20.6775 39.9985 20.6775H61.4103C62.0579 20.6775 62.5822 21.2024 62.5822 21.8494C62.5822 22.4969 62.0573 23.0212 61.4103 23.0212Z" fill="#5A5A5A"/>
<path d="M58.1581 29.2731H50.3279C49.6803 29.2731 49.156 28.7488 49.156 28.1012C49.156 27.4542 49.6803 26.9293 50.3279 26.9293H58.1581C58.8057 26.9293 59.33 27.4542 59.33 28.1012C59.33 28.7488 58.8057 29.2731 58.1581 29.2731Z" fill="#5A5A5A"/>
<path d="M46.2324 29.2731H43.7922C43.1447 29.2731 42.6204 28.7488 42.6204 28.1012C42.6204 27.4542 43.1447 26.9293 43.7922 26.9293H46.2324C46.88 26.9293 47.4049 27.4542 47.4049 28.1012C47.4049 28.7488 46.88 29.2731 46.2324 29.2731Z" fill="#5A5A5A"/>
<path d="M39.8632 29.2731H32.5591C31.9121 29.2731 31.3872 28.7488 31.3872 28.1012C31.3872 27.4542 31.9121 26.9293 32.5591 26.9293H39.8632C40.5107 26.9293 41.035 27.4542 41.035 28.1012C41.035 28.7488 40.5107 29.2731 39.8632 29.2731Z" fill="#5A5A5A"/>
<path d="M13.1519 29.8035C12.8442 29.8035 12.5427 29.6783 12.3242 29.4598C12.1051 29.2407 11.98 28.9392 11.98 28.6316C11.98 28.3221 12.1051 28.0206 12.3242 27.8015C12.5427 27.5842 12.8442 27.4597 13.1519 27.4597C13.4613 27.4597 13.7628 27.5848 13.9819 27.8015C14.1992 28.0206 14.3237 28.3221 14.3237 28.6316C14.3237 28.9392 14.1992 29.2407 13.9819 29.4598C13.7628 29.6783 13.4619 29.8035 13.1519 29.8035Z" fill="#5A5A5A"/>
<path d="M17.2925 29.8035C17.2162 29.8035 17.1399 29.7955 17.063 29.7797C16.9897 29.7644 16.9147 29.7424 16.8445 29.7125C16.7743 29.6826 16.7053 29.6472 16.6425 29.6051C16.5771 29.563 16.5179 29.5142 16.4648 29.4598C16.2457 29.2407 16.1206 28.9392 16.1206 28.6316C16.1206 28.3221 16.2457 28.0206 16.4648 27.8015C16.5179 27.7484 16.5771 27.7002 16.6425 27.6562C16.7053 27.6141 16.7743 27.5781 16.8445 27.5488C16.9147 27.5201 16.9897 27.4969 17.063 27.4811C17.2144 27.4518 17.3706 27.4518 17.5226 27.4811C17.5958 27.4969 17.6709 27.5201 17.7411 27.5488C17.8113 27.5781 17.8802 27.6141 17.9425 27.6562C18.0066 27.6984 18.0676 27.7484 18.1207 27.8015C18.3392 28.0206 18.4644 28.3221 18.4644 28.6316C18.4644 28.9392 18.3392 29.2407 18.1207 29.4598C18.0676 29.5142 18.0066 29.563 17.9425 29.6051C17.8802 29.6472 17.8113 29.6832 17.7411 29.7125C17.6709 29.7424 17.5958 29.7644 17.5226 29.7797C17.4463 29.7955 17.3694 29.8035 17.2925 29.8035Z" fill="#5A5A5A"/>
<path d="M21.4337 29.8034C21.1243 29.8034 20.8228 29.6783 20.6036 29.4598C20.3864 29.2407 20.26 28.9392 20.26 28.6316C20.26 28.3221 20.3864 28.0206 20.6036 27.8015C20.8752 27.5299 21.2817 27.4048 21.6614 27.481C21.7365 27.4969 21.8103 27.5201 21.8805 27.5488C21.9525 27.5781 22.0197 27.6141 22.0837 27.6562C22.1478 27.6983 22.207 27.7484 22.2614 27.8015C22.3163 27.8564 22.3645 27.9156 22.4072 27.9797C22.4493 28.0438 22.4854 28.1128 22.5146 28.183C22.5446 28.2531 22.5665 28.327 22.5818 28.4015C22.5977 28.4784 22.6056 28.5547 22.6056 28.6316C22.6056 28.9392 22.4805 29.2425 22.2614 29.4598C22.207 29.5141 22.1478 29.563 22.0837 29.6051C22.0197 29.6472 21.9525 29.6832 21.8805 29.7125C21.8103 29.7424 21.7365 29.7644 21.6614 29.7796C21.5869 29.7955 21.5088 29.8034 21.4337 29.8034Z" fill="#5A5A5A"/>
<path d="M49.1708 79.9463H48.5159C44.4705 79.9463 41.1917 76.6669 41.1917 72.6221V42.113C41.1917 41.5741 41.6281 41.1377 42.167 41.1377H55.519C56.058 41.1377 56.495 41.5741 56.495 42.113V72.6221C56.495 76.6675 53.2156 79.9463 49.1708 79.9463Z" fill="#009A8E"/>
<path d="M56.495 54.0576H41.1917V42.113C41.1917 41.5741 41.6281 41.1377 42.167 41.1377H55.519C56.058 41.1377 56.495 41.5741 56.495 42.113V54.0576Z" fill="#83E5EB"/>
<path d="M56.4946 54.0576H53.7822V41.1371H55.5187C56.0576 41.1371 56.4946 41.5741 56.4946 42.113V54.0576Z" fill="#5CDAE2"/>
<path d="M41.1909 54.1058H56.4949V67.0264H41.1909V54.1058Z" fill="#80E0DC"/>
<path d="M53.7815 54.1058H56.4945V67.0264H53.7815V54.1058Z" fill="#00A8B0"/>
<path d="M43.7995 77.8009L43.3362 77.3383C40.4761 74.4775 40.4761 69.8401 43.3362 66.98L64.9091 45.4065C65.2906 45.0256 65.9083 45.0256 66.2891 45.4065L75.7306 54.848C76.1115 55.2289 76.1115 55.8472 75.7306 56.228L54.1578 77.8009C51.2977 80.6616 46.6596 80.6616 43.7995 77.8009Z" fill="#FFAA00"/>
<path d="M67.2844 64.6741L56.4629 53.8525L64.9089 45.4065C65.2904 45.0256 65.9081 45.0256 66.2889 45.4065L75.7305 54.848C76.1113 55.2289 76.1113 55.8466 75.7305 56.228L67.2844 64.6741Z" fill="#FFE1A8"/>
<path d="M67.2845 64.6741L65.3662 62.7557L74.5026 53.62L75.7306 54.848C76.1121 55.2289 76.1121 55.8472 75.7306 56.228L67.2845 64.6741Z" fill="#FFD98F"/>
<path d="M56.4296 53.8861L67.2505 64.7076L58.1147 73.8434L47.2932 63.0219L56.4296 53.8861Z" fill="#FFD86E"/>
<path d="M65.3326 62.7893L67.2504 64.707L58.1146 73.8434L56.1963 71.925L65.3326 62.7893Z" fill="#FFB509"/>
<path d="M41.1909 72.6221V71.9672C41.1909 67.9218 44.4703 64.6429 48.5151 64.6429H79.0242C79.5631 64.6429 80.0001 65.0793 80.0001 65.6183V78.9703C80.0001 79.5093 79.5631 79.9463 79.0242 79.9463H48.5151C44.4703 79.9463 41.1909 76.6675 41.1909 72.6221Z" fill="#E32945"/>
<path d="M67.0801 79.9463V64.6429H79.024C79.563 64.6429 80 65.0793 80 65.6183V78.9703C80 79.5093 79.563 79.9463 79.024 79.9463H67.0801Z" fill="#FF9AA9"/>
<path d="M67.0801 79.9463V77.2339H80V78.9703C80 79.5093 79.563 79.9463 79.0247 79.9463H67.0801Z" fill="#FF7A8E"/>
<path d="M54.1113 64.6429H67.0319V79.9463H54.1113V64.6429Z" fill="#FF5770"/>
<path d="M54.1113 77.2339H67.0319V79.9463H54.1113V77.2339Z" fill="#FF435F"/>
<path d="M50.0359 72.2943C50.0359 73.6938 48.9012 74.8279 47.5023 74.8279C46.1028 74.8279 44.9688 73.6938 44.9688 72.2943C44.9688 70.8954 46.1028 69.7607 47.5023 69.7607C48.9012 69.7607 50.0359 70.8954 50.0359 72.2943Z" fill="#838383"/>
</g>
<defs>
<clipPath id="clip0">
<rect width="80" height="80" fill="white"/>
</clipPath>
</defs>
</svg>
