<svg width="56" height="59" viewBox="0 0 56 59" fill="none" xmlns="http://www.w3.org/2000/svg">
<path d="M53.1641 23.9442C53.9138 23.9442 54.633 24.24 55.1645 24.767C55.6959 25.294 55.9963 26.0092 56 26.7563V56.1856C56 57.7353 54.7424 59 53.178 59H2.82429C2.07524 59 1.35687 58.7035 0.827216 58.1757C0.297558 57.6479 0 56.932 0 56.1856V2.81438C0 1.26705 1.25757 0.00231633 2.82662 0.00231633H8.94708C10.4999 0.00231633 11.769 1.25315 11.769 2.81438V21.2966C11.8106 21.9556 12.0804 22.5797 12.5323 23.0626C12.9842 23.5454 13.5902 23.857 14.247 23.9442H18.8263C20.214 23.8168 21.3693 22.6911 21.446 21.2966V2.81206C21.446 1.26473 22.7013 0 24.268 0H30.3884C31.9412 0 33.2127 1.25083 33.2127 2.81206V21.102C33.2127 22.5474 34.2774 23.7751 35.6767 23.9419H53.1664L53.1641 23.9442ZM45.105 44.1267V38.3682C45.105 36.8209 43.8497 35.5538 42.283 35.5538H36.1602C34.6074 35.5538 33.3359 36.807 33.3359 38.3682V44.1243C33.3359 45.6717 34.5935 46.9364 36.1602 46.9364H42.2807C43.8335 46.9364 45.1027 45.6856 45.1027 44.1243L45.105 44.1267Z" fill="#FF6600"/>
</svg>
