<svg width="72" height="64" viewBox="0 0 72 64" fill="none" xmlns="http://www.w3.org/2000/svg">
<path d="M36.0002 38.3699C39.5511 38.3699 42.4296 35.4914 42.4296 31.9405C42.4296 28.3897 39.5511 25.5111 36.0002 25.5111C32.4493 25.5111 29.5708 28.3897 29.5708 31.9405C29.5708 35.4914 32.4493 38.3699 36.0002 38.3699Z" fill="#61DAFB"/>
<path fill-rule="evenodd" clip-rule="evenodd" d="M36.0004 18.8682C44.6327 18.8682 52.6519 20.1068 58.6984 22.1884C65.9835 24.6965 70.4627 28.4981 70.4627 31.9405C70.4627 35.5277 65.7157 39.5664 57.8924 42.1584C51.9778 44.118 44.1947 45.141 36.0004 45.141C27.599 45.141 19.6433 44.1808 13.6621 42.1369C6.09475 39.5504 1.53687 35.4594 1.53687 31.9405C1.53687 28.526 5.81356 24.7538 12.9963 22.2495C19.0653 20.1336 27.2825 18.8682 35.9992 18.8682H36.0004Z" stroke="#61DAFB" stroke-width="2.73408"/>
<path fill-rule="evenodd" clip-rule="evenodd" d="M24.6206 25.442C28.9332 17.9641 34.0122 11.6361 38.8361 7.4381C44.6482 2.38013 50.1792 0.399292 53.1611 2.11881C56.2687 3.91088 57.3957 10.0409 55.7329 18.1127C54.4769 24.2154 51.4736 31.4685 47.3799 38.567C43.1827 45.845 38.3767 52.2571 33.6185 56.4161C27.5975 61.6794 21.7765 63.5841 18.7282 61.8261C15.7703 60.1216 14.6391 54.5313 16.0581 47.0579C17.257 40.7434 20.2659 32.9929 24.6192 25.4419L24.6206 25.442Z" stroke="#61DAFB" stroke-width="2.73408"/>
<path fill-rule="evenodd" clip-rule="evenodd" d="M24.6313 38.5861C20.3065 31.1167 17.3621 23.5546 16.133 17.2789C14.6535 9.71746 15.6996 3.93617 18.6788 2.21165C21.7833 0.41433 27.657 2.49924 33.8196 7.97116C38.479 12.1082 43.2635 18.3312 47.3691 25.4231C51.5784 32.694 54.7331 40.0602 55.9604 46.2596C57.5133 54.1046 56.2565 60.0988 53.211 61.8618C50.256 63.5725 44.8485 61.7613 39.0826 56.7995C34.2109 52.6074 28.9987 46.1298 24.6313 38.586V38.5861Z" stroke="#61DAFB" stroke-width="2.73408"/>
</svg>
