<svg width="68" height="65" viewBox="0 0 68 65" fill="none" xmlns="http://www.w3.org/2000/svg">
<g clip-path="url(#clip0)">
<path d="M6.18191 0H61.8181C65.2322 0 68 2.64568 68 5.90918V59.0908C68 62.3543 65.2322 65 61.8181 65H6.18191C2.76778 65 0 62.3543 0 59.0908V5.90918C0 2.64568 2.76778 0 6.18191 0Z" fill="#5628B4"/>
<path d="M3.09086 9.203H64.9086C66.6156 9.203 67.9994 10.5908 67.9994 12.3028V12.3029C67.9994 14.0149 66.6156 15.4028 64.9086 15.4028H3.09086C1.38381 15.4028 0 14.0149 0 12.3029V12.3028C0 10.5908 1.38381 9.203 3.09086 9.203Z" fill="#3D068C"/>
<path d="M6.18186 0H61.8181C65.2322 0 68 2.29 68 5.11478V12.7869H0V5.11478C0 2.29 2.76776 0 6.18186 0Z" fill="#DFD2F2"/>
<path d="M17 18.5029H60.2725C61.1261 18.5029 61.818 19.1969 61.818 20.0529C61.818 20.9089 61.1261 21.6029 60.2725 21.6029H17C16.1464 21.6029 15.4545 20.9089 15.4545 20.0529C15.4545 19.1969 16.1464 18.5029 17 18.5029Z" fill="#B8A4DF"/>
<path d="M17 24.7012H32.4544C33.3079 24.7012 33.9999 25.3952 33.9999 26.2511C33.9999 27.1071 33.3079 27.8011 32.4544 27.8011H17C16.1464 27.8011 15.4545 27.1071 15.4545 26.2511C15.4545 25.3952 16.1464 24.7012 17 24.7012Z" fill="#F7B236"/>
<path d="M17 30.9016H32.4544C33.3079 30.9016 33.9999 31.5956 33.9999 32.4516C33.9999 33.3076 33.3079 34.0014 32.4544 34.0014H17C16.1464 34.0014 15.4545 33.3074 15.4545 32.4516C15.4545 31.5956 16.1464 30.9016 17 30.9016Z" fill="#B8A4DF"/>
<path d="M17 43.3007H23.1817C24.0352 43.3007 24.7272 43.9946 24.7272 44.8506C24.7272 45.7066 24.0352 46.4006 23.1817 46.4006H17C16.1464 46.4006 15.4545 45.7066 15.4545 44.8506C15.4545 43.9946 16.1464 43.3007 17 43.3007Z" fill="#7F5CC6"/>
<path d="M17 37.1021H23.1817C24.0352 37.1021 24.7272 37.796 24.7272 38.652C24.7272 39.508 24.0352 40.202 23.1817 40.202H17C16.1464 40.202 15.4545 39.508 15.4545 38.652C15.4545 37.796 16.1464 37.1021 17 37.1021Z" fill="#7F5CC6"/>
<path d="M7.72751 55.701H10.8184C11.6719 55.701 12.3639 56.395 12.3639 57.251C12.3639 58.107 11.6719 58.801 10.8184 58.801H7.72751C6.87398 58.801 6.18201 58.107 6.18201 57.251C6.18201 56.395 6.87398 55.701 7.72751 55.701Z" fill="#D80E70"/>
<path d="M7.72751 49.5009H10.8184C11.6719 49.5009 12.3639 50.1948 12.3639 51.0508C12.3639 51.9068 11.6719 52.6008 10.8184 52.6008H7.72751C6.87398 52.6008 6.18201 51.9068 6.18201 51.0508C6.18201 50.1948 6.87398 49.5009 7.72751 49.5009Z" fill="#D80E70"/>
<path d="M7.72751 37.1019H10.8184C11.6719 37.1019 12.3639 37.7959 12.3639 38.6519C12.3639 39.5079 11.6719 40.2019 10.8184 40.2019H7.72751C6.87398 40.2019 6.18201 39.5079 6.18201 38.6519C6.18201 37.7959 6.87398 37.1019 7.72751 37.1019Z" fill="#D80E70"/>
<path d="M7.72751 43.3005H10.8184C11.6719 43.3005 12.3639 43.9945 12.3639 44.8505C12.3639 45.7065 11.6719 46.4005 10.8184 46.4005H7.72751C6.87398 46.4005 6.18201 45.7065 6.18201 44.8505C6.18201 43.9945 6.87398 43.3005 7.72751 43.3005Z" fill="#D80E70"/>
<path d="M7.72751 30.9017H10.8184C11.6719 30.9017 12.3639 31.5957 12.3639 32.4517C12.3639 33.3077 11.6719 34.0015 10.8184 34.0015H7.72751C6.87398 34.0015 6.18201 33.3076 6.18201 32.4517C6.18201 31.5957 6.87398 30.9017 7.72751 30.9017Z" fill="#D80E70"/>
<path d="M7.72751 24.7015H10.8184C11.6719 24.7015 12.3639 25.3955 12.3639 26.2515C12.3639 27.1075 11.6719 27.8015 10.8184 27.8015H7.72751C6.87398 27.8015 6.18201 27.1075 6.18201 26.2515C6.18201 25.3955 6.87398 24.7015 7.72751 24.7015Z" fill="#D80E70"/>
<path d="M7.72751 18.5029H10.8184C11.6719 18.5029 12.3639 19.1969 12.3639 20.0529C12.3639 20.9089 11.6719 21.6029 10.8184 21.6029H7.72751C6.87398 21.6029 6.18201 20.9089 6.18201 20.0529C6.18201 19.1969 6.87398 18.5029 7.72751 18.5029Z" fill="#D80E70"/>
<path d="M17 55.7012H20.0908C20.9443 55.7012 21.6363 56.3951 21.6363 57.2511C21.6363 58.1071 20.9443 58.8011 20.0908 58.8011H17C16.1464 58.8011 15.4545 58.1071 15.4545 57.2511C15.4545 56.3951 16.1464 55.7012 17 55.7012Z" fill="#7F5CC6"/>
<path d="M17 49.5006H26.2721C27.1256 49.5006 27.8176 50.1946 27.8176 51.0506C27.8176 51.9066 27.1256 52.6006 26.2721 52.6006H17C16.1464 52.6006 15.4545 51.9066 15.4545 51.0506C15.4545 50.1946 16.1464 49.5006 17 49.5006Z" fill="#B8A4DF"/>
<path d="M32.455 49.5006H41.7272C42.5807 49.5006 43.2727 50.1946 43.2727 51.0506C43.2727 51.9066 42.5807 52.6006 41.7272 52.6006H32.455C31.6015 52.6006 30.9095 51.9066 30.9095 51.0506C30.9095 50.1946 31.6015 49.5006 32.455 49.5006Z" fill="#B8A4DF"/>
<path d="M38.6357 30.9016H54.0901C54.9437 30.9016 55.6356 31.5956 55.6356 32.4516C55.6356 33.3076 54.9437 34.0014 54.0901 34.0014H38.6357C37.7822 34.0014 37.0902 33.3074 37.0902 32.4516C37.0902 31.5956 37.7822 30.9016 38.6357 30.9016Z" fill="#B8A4DF"/>
<path d="M7.728 6.10361C8.58155 6.10361 9.2735 5.40966 9.2735 4.55363C9.2735 3.69761 8.58155 3.00366 7.728 3.00366C6.87444 3.00366 6.1825 3.69761 6.1825 4.55363C6.1825 5.40966 6.87444 6.10361 7.728 6.10361Z" fill="#F7B236"/>
<path d="M13.9085 6.10361C14.762 6.10361 15.454 5.40966 15.454 4.55363C15.454 3.69761 14.762 3.00366 13.9085 3.00366C13.0549 3.00366 12.363 3.69761 12.363 4.55363C12.363 5.40966 13.0549 6.10361 13.9085 6.10361Z" fill="#420FAB"/>
<path d="M20.091 6.10361C20.9446 6.10361 21.6365 5.40966 21.6365 4.55363C21.6365 3.69761 20.9446 3.00366 20.091 3.00366C19.2375 3.00366 18.5455 3.69761 18.5455 4.55363C18.5455 5.40966 19.2375 6.10361 20.091 6.10361Z" fill="#D80E70"/>
<path d="M4.6365 9.203H63.3641C64.2176 9.203 64.9096 9.89698 64.9096 10.753C64.9096 11.609 64.2176 12.3029 63.3641 12.3029H4.6365C3.78298 12.3029 3.091 11.609 3.091 10.753C3.091 9.89698 3.78298 9.203 4.6365 9.203Z" fill="#C6AFE8"/>
<path d="M66.4543 18.5023C65.6007 18.5023 64.9088 19.1962 64.9088 20.0521C64.9088 20.0521 64.9088 20.0521 64.9088 20.0523V58.8004C64.9088 60.5124 63.5249 61.9002 61.8179 61.9002H44.818C43.9644 61.9002 43.2725 62.5942 43.2725 63.4502C43.2725 64.3062 43.9644 65.0002 44.818 65.0002H61.8179C65.232 65.0002 67.9996 62.2244 67.9998 58.8004V20.0521C67.9998 19.1962 67.3078 18.5023 66.4543 18.5023Z" fill="#3D068C"/>
<path d="M1.5455 24.7012C2.39902 24.7012 3.091 25.3952 3.091 26.2511V51.0498C3.091 51.9058 2.39902 52.5998 1.5455 52.5998C0.691976 52.5998 0 51.9058 0 51.0498V26.2511C0 25.3952 0.691976 24.7012 1.5455 24.7012Z" fill="#7047BF"/>
</g>
<defs>
<clipPath id="clip0">
<rect width="68" height="65" fill="white"/>
</clipPath>
</defs>
</svg>
