<svg width="88" height="88" viewBox="0 0 88 88" fill="none" xmlns="http://www.w3.org/2000/svg">
<g clip-path="url(#clip0)">
<path d="M0.862813 17.6406L0 19.2495V64.1792C0 67.1441 2.4035 69.5476 5.36834 69.5476H67.486C70.4509 69.5476 72.8544 67.1441 72.8544 64.1792V19.2495L71.9916 17.6406H0.862813Z" fill="#D8EAFB"/>
<path d="M64.0642 17.6406V55.3889C64.0642 58.3537 61.6607 60.7572 58.6958 60.7572H0V64.1792C0 67.1441 2.4035 69.5476 5.36834 69.5476H67.486C70.4509 69.5476 72.8544 67.1441 72.8544 64.1792V19.2495L71.9916 17.6406H64.0642Z" fill="#B3D8FB"/>
<path d="M67.4862 4.43433H5.36834C2.4035 4.43433 0 6.83783 0 9.80267V19.2496H72.8545V9.80267C72.8545 6.83783 70.451 4.43433 67.4862 4.43433Z" fill="#1690FB"/>
<path d="M67.4865 4.43433H64.0645V19.2496H72.855V9.80267C72.8548 6.83783 70.4513 4.43433 67.4865 4.43433Z" fill="#0571F9"/>
<path d="M9.03202 14.2504C10.3622 14.2504 11.4405 13.1721 11.4405 11.842C11.4405 10.5118 10.3622 9.43347 9.03202 9.43347C7.70185 9.43347 6.62354 10.5118 6.62354 11.842C6.62354 13.1721 7.70185 14.2504 9.03202 14.2504Z" fill="#B3D8FB"/>
<path d="M16.4412 14.2504C17.7714 14.2504 18.8497 13.1721 18.8497 11.842C18.8497 10.5118 17.7714 9.43347 16.4412 9.43347C15.111 9.43347 14.0327 10.5118 14.0327 11.842C14.0327 13.1721 15.111 14.2504 16.4412 14.2504Z" fill="#B3D8FB"/>
<path d="M23.8501 14.2504C25.1803 14.2504 26.2586 13.1721 26.2586 11.842C26.2586 10.5118 25.1803 9.43347 23.8501 9.43347C22.52 9.43347 21.4417 10.5118 21.4417 11.842C21.4417 13.1721 22.52 14.2504 23.8501 14.2504Z" fill="#B3D8FB"/>
<path d="M21.2235 47.3352C21.0642 47.3352 20.9025 47.3057 20.7455 47.2433C20.0812 46.9791 19.7569 46.2265 20.0213 45.5623L27.2199 27.463C27.4841 26.7987 28.2369 26.4751 28.9007 26.7388C29.565 27.0029 29.8893 27.7556 29.6249 28.4197L22.4263 46.519C22.2247 47.0264 21.738 47.3352 21.2235 47.3352Z" fill="#465961"/>
<path d="M35.5304 46.4675C35.3102 46.4675 35.0871 46.4113 34.8829 46.2929C34.2643 45.9345 34.0533 45.1428 34.4116 44.5243L38.8623 36.8406L34.4233 29.4775C34.0543 28.8654 34.2513 28.07 34.8635 27.701C35.4754 27.332 36.2711 27.5288 36.64 28.1411L41.474 36.1593C41.7177 36.5634 41.722 37.0678 41.4857 37.4762L36.6517 45.8217C36.4116 46.236 35.9769 46.4673 35.5304 46.4675Z" fill="#465961"/>
<path d="M13.8677 46.4674C13.4212 46.4674 12.9865 46.2359 12.7466 45.8216L7.91257 37.4761C7.67607 37.0677 7.68054 36.5632 7.92426 36.1592L12.7582 28.141C13.1273 27.5288 13.9232 27.332 14.5347 27.7009C15.147 28.0699 15.3439 28.8653 14.9749 29.4774L10.5359 36.8405L14.9866 44.5242C15.345 45.1427 15.1339 45.9346 14.5153 46.2928C14.311 46.411 14.0877 46.4672 13.8677 46.4674Z" fill="#465961"/>
<path d="M79.6672 58.3222H76.0389C75.6353 56.7105 74.9987 55.192 74.1661 53.8036L76.7324 51.2371C77.2403 50.7294 77.2403 49.9061 76.7324 49.3984L72.8039 45.4699C72.2961 44.962 71.4729 44.962 70.9651 45.4699L68.3987 48.0361C67.0105 47.2034 65.4916 46.5668 63.8801 46.1634V42.5351C63.8801 41.817 63.298 41.2349 62.5799 41.2349H57.024C56.3059 41.2349 55.7238 41.817 55.7238 42.5351V46.1634C54.1123 46.5669 52.5934 47.2036 51.2052 48.0361L48.6387 45.4699C48.131 44.962 47.3077 44.962 46.8 45.4699L42.8715 49.3984C42.3638 49.9061 42.3638 50.7294 42.8715 51.2371L45.4377 53.8036C44.605 55.1918 43.9684 56.7105 43.565 58.3222H39.9367C39.2186 58.3222 38.6365 58.9043 38.6365 59.6224V65.1783C38.6365 65.8964 39.2186 66.4785 39.9367 66.4785H43.565C43.9686 68.0902 44.6052 69.6089 45.4377 70.9971L42.8715 73.5634C42.3638 74.0712 42.3638 74.8944 42.8715 75.4021L46.8 79.3306C47.3077 79.8385 48.131 79.8385 48.6387 79.3306L51.2052 76.7644C52.5934 77.5971 54.1123 78.2337 55.7238 78.6371V82.2654C55.7238 82.9835 56.3059 83.5656 57.024 83.5656H62.5799C63.298 83.5656 63.8801 82.9835 63.8801 82.2654V78.6371C65.4916 78.2335 67.0105 77.5969 68.3987 76.7644L70.9651 79.3306C71.4729 79.8385 72.2961 79.8385 72.8039 79.3306L76.7324 75.4021C77.2403 74.8944 77.2403 74.0711 76.7324 73.5634L74.1661 70.9971C74.9989 69.6089 75.6355 68.09 76.0389 66.4785H79.6672C80.3853 66.4785 80.9674 65.8964 80.9674 65.1783V59.6224C80.9674 58.9043 80.3853 58.3222 79.6672 58.3222ZM59.8022 69.0962C56.1043 69.0962 53.1063 66.0983 53.1063 62.4002C53.1063 58.7024 56.1041 55.7043 59.8022 55.7043C63.5001 55.7043 66.4981 58.7022 66.4981 62.4002C66.4979 66.0983 63.5001 69.0962 59.8022 69.0962Z" fill="#7C8B96"/>
<path d="M79.6672 58.3222H76.0381C75.6345 56.7108 74.998 55.1923 74.1653 53.8044L76.7324 51.2373C77.2403 50.7296 77.2403 49.9063 76.7324 49.3986L72.8039 45.47C72.2962 44.9621 71.4729 44.9621 70.9652 45.47L68.3968 48.0384C66.9911 47.1957 65.4524 46.5516 63.8183 46.1491C68.0636 49.1855 70.8337 54.1528 70.8337 59.7704C70.8337 69.0154 63.3391 76.51 54.0941 76.51C52.7093 76.51 51.3649 76.3386 50.0779 76.0217C51.7559 77.2219 53.6646 78.1191 55.7241 78.6361V82.2655C55.7241 82.9836 56.3063 83.5658 57.0244 83.5658H62.5802C63.2983 83.5658 63.8805 82.9836 63.8805 82.2655V78.6373C65.492 78.2337 67.0108 77.5971 68.3991 76.7645L70.9655 79.3308C71.4732 79.8387 72.2965 79.8387 72.8042 79.3308L76.7328 75.4022C77.2407 74.8945 77.2407 74.0712 76.7328 73.5635L74.1665 70.9973C74.9991 69.609 75.6359 68.0902 76.0393 66.4787H79.6675C80.3856 66.4787 80.9678 65.8965 80.9678 65.1784V59.6226C80.9674 58.9043 80.3853 58.3222 79.6672 58.3222Z" fill="#465961"/>
<path d="M87.5811 33.4324L85.84 32.7212C85.9622 31.8687 85.9544 31.0151 85.8269 30.1859L87.5615 29.4574C87.9047 29.3134 88.0661 28.9183 87.9219 28.5752L86.8068 25.9199C86.6627 25.5767 86.2676 25.4153 85.9245 25.5595L84.19 26.2879C83.687 25.6162 83.0831 25.0131 82.3889 24.5035L83.1001 22.7624C83.2409 22.4178 83.0757 22.0244 82.7311 21.8836L80.0651 20.7946C79.7205 20.6538 79.3271 20.8192 79.1863 21.1636L78.4751 22.9047C77.6226 22.7825 76.7691 22.7902 75.9398 22.9176L75.2114 21.183C75.0673 20.8398 74.6722 20.6784 74.3291 20.8226L71.6738 21.9377C71.3306 22.0818 71.1692 22.4769 71.3134 22.82L72.0418 24.5545C71.3701 25.0574 70.767 25.6614 70.2574 26.3556L68.5163 25.6444C68.1717 25.5036 67.7783 25.669 67.6375 26.0134L66.5485 28.6794C66.4078 29.024 66.5729 29.4174 66.9175 29.5582L68.6586 30.2694C68.5364 31.1219 68.5442 31.9754 68.6715 32.8047L66.937 33.5331C66.5937 33.6773 66.4323 34.0723 66.5765 34.4155L67.6917 37.0708C67.8359 37.4141 68.2308 37.5754 68.5739 37.4312L70.3085 36.7028C70.8114 37.3745 71.4153 37.9776 72.1097 38.4872L71.3985 40.2283C71.2577 40.5729 71.4229 40.9664 71.7675 41.1071L74.4335 42.1961C74.7781 42.3369 75.1715 42.1716 75.3123 41.8271L76.0235 40.086C76.876 40.2082 77.7295 40.2005 78.5588 40.0731L79.2872 41.8077C79.4313 42.1509 79.8264 42.3123 80.1695 42.1681L82.8248 41.053C83.168 40.909 83.3294 40.5138 83.1852 40.1706L82.4568 38.436C83.1285 37.9331 83.7316 37.3291 84.2412 36.6349L85.9823 37.3462C86.3269 37.4869 86.7203 37.3218 86.8611 36.9771L87.9501 34.3112C88.0908 33.9666 87.9255 33.573 87.5811 33.4324ZM75.9367 34.7084C74.1623 33.9836 73.3113 31.9574 74.0361 30.1829C74.7609 28.4085 76.7871 27.5575 78.5616 28.2823C80.336 29.0071 81.187 31.0334 80.4622 32.8078C79.7374 34.5822 77.7113 35.4332 75.9367 34.7084Z" fill="#7C8B96"/>
<path d="M87.5811 33.4324L85.8397 32.721C85.9619 31.8686 85.9542 31.0153 85.8266 30.186L87.5617 29.4572C87.9049 29.3132 88.0663 28.9181 87.9221 28.575L86.807 25.9197C86.663 25.5765 86.2678 25.4151 85.9248 25.5593L84.1888 26.2884C83.6794 25.6084 83.0674 24.9978 82.3622 24.4844C83.8042 26.7736 84.1596 29.7001 83.0584 32.3958C81.2462 36.832 76.1808 38.9593 71.7446 37.1471C71.0801 36.8757 70.4686 36.5299 69.9131 36.1255C70.483 37.0302 71.2231 37.8349 72.11 38.4867L71.3986 40.2283C71.2578 40.5729 71.423 40.9663 71.7676 41.1071L74.4336 42.1961C74.7782 42.3369 75.1716 42.1715 75.3124 41.8271L76.0236 40.086C76.8761 40.2082 77.7296 40.2005 78.5589 40.0731L79.2873 41.8077C79.4313 42.1509 79.8265 42.3123 80.1695 42.1681L82.8248 41.053C83.1681 40.9089 83.3295 40.5138 83.1853 40.1705L82.4569 38.436C83.1285 37.9331 83.7317 37.3291 84.2413 36.6349L85.9824 37.3461C86.327 37.4869 86.7204 37.3217 86.8612 36.9771L87.9502 34.3112C88.0909 33.9665 87.9256 33.573 87.5811 33.4324Z" fill="#465961"/>
</g>
<defs>
<clipPath id="clip0">
<rect width="88" height="88" fill="white"/>
</clipPath>
</defs>
</svg>
