<svg xmlns="http://www.w3.org/2000/svg" viewBox="0 0 35.98 48.21"><defs><style>.cls-1{fill:#e20613;}</style></defs><g id="Слой_2" data-name="Слой 2"><g id="Слой_1-2" data-name="Слой 1"><polygon class="cls-1" points="17.99 48.21 23.03 29.14 35.98 24.11 23.03 19.07 17.99 0 12.95 19.07 0 24.11 12.95 29.14 17.99 48.21"/><polygon points="19.29 25.43 18.96 25.45 18.84 25.75 18.52 25.68 18.32 25.93 18.04 25.77 17.77 25.95 17.55 25.71 17.24 25.8 17.1 25.5 16.77 25.5 16.73 25.18 16.42 25.08 16.47 24.76 16.21 24.57 16.35 24.28 16.15 24.02 16.37 23.79 16.26 23.48 16.54 23.32 16.52 23 16.84 22.93 16.91 22.62 17.24 22.64 17.4 22.36 17.7 22.48 17.94 22.27 18.2 22.47 18.49 22.34 18.67 22.6 18.99 22.56 19.09 22.87 19.41 22.92 19.4 23.25 19.69 23.39 19.6 23.7 19.83 23.93 19.65 24.19 19.8 24.48 19.55 24.68 19.62 24.99 19.31 25.11 19.29 25.43"/></g></g></svg>